<svg width="200" height="61" viewBox="0 0 200 61" fill="none" xmlns="http://www.w3.org/2000/svg">
<path d="M1.73183 48.25V17.5264H13.8532C16.1735 17.5264 18.1537 17.9415 19.7939 18.7716C21.4441 19.5917 22.6993 20.7568 23.5594 22.267C24.4295 23.7672 24.8645 25.5324 24.8645 27.5626C24.8645 29.6028 24.4245 31.358 23.5444 32.8282C22.6643 34.2884 21.3891 35.4085 19.7189 36.1886C18.0587 36.9687 16.0485 37.3587 13.6882 37.3587H5.57228V32.1381H12.6381C13.8782 32.1381 14.9084 31.9681 15.7285 31.6281C16.5486 31.288 17.1586 30.778 17.5587 30.0979C17.9687 29.4178 18.1737 28.5727 18.1737 27.5626C18.1737 26.5425 17.9687 25.6824 17.5587 24.9823C17.1586 24.2822 16.5436 23.7522 15.7135 23.3921C14.8934 23.0221 13.8582 22.8371 12.6081 22.8371H8.22759V48.25H1.73183ZM18.3238 34.2684L25.9596 48.25H18.7888L11.3179 34.2684H18.3238ZM57.6883 32.8882C57.6883 36.2386 57.0532 39.0889 55.7831 41.4392C54.523 43.7895 52.8028 45.5847 50.6225 46.8248C48.4522 48.055 46.012 48.67 43.3017 48.67C40.5713 48.67 38.1211 48.05 35.9508 46.8098C33.7805 45.5697 32.0653 43.7745 30.8052 41.4242C29.5451 39.0739 28.915 36.2286 28.915 32.8882C28.915 29.5378 29.5451 26.6875 30.8052 24.3372C32.0653 21.987 33.7805 20.1967 35.9508 18.9666C38.1211 17.7265 40.5713 17.1064 43.3017 17.1064C46.012 17.1064 48.4522 17.7265 50.6225 18.9666C52.8028 20.1967 54.523 21.987 55.7831 24.3372C57.0532 26.6875 57.6883 29.5378 57.6883 32.8882ZM51.1026 32.8882C51.1026 30.718 50.7775 28.8878 50.1274 27.3976C49.4874 25.9074 48.5823 24.7773 47.4121 24.0072C46.242 23.2371 44.8718 22.8521 43.3017 22.8521C41.7315 22.8521 40.3613 23.2371 39.1912 24.0072C38.021 24.7773 37.1109 25.9074 36.4609 27.3976C35.8208 28.8878 35.5007 30.718 35.5007 32.8882C35.5007 35.0585 35.8208 36.8887 36.4609 38.3789C37.1109 39.869 38.021 40.9992 39.1912 41.7692C40.3613 42.5393 41.7315 42.9244 43.3017 42.9244C44.8718 42.9244 46.242 42.5393 47.4121 41.7692C48.5823 40.9992 49.4874 39.869 50.1274 38.3789C50.7775 36.8887 51.1026 35.0585 51.1026 32.8882ZM79.1671 26.3625C79.047 25.1523 78.532 24.2122 77.6219 23.5421C76.7118 22.8721 75.4766 22.537 73.9164 22.537C72.8563 22.537 71.9612 22.687 71.2311 22.9871C70.5011 23.2771 69.941 23.6822 69.5509 24.2022C69.1709 24.7223 68.9809 25.3123 68.9809 25.9724C68.9609 26.5225 69.0759 27.0025 69.3259 27.4126C69.5859 27.8226 69.941 28.1777 70.391 28.4777C70.8411 28.7677 71.3612 29.0228 71.9512 29.2428C72.5413 29.4528 73.1714 29.6328 73.8414 29.7829L76.6018 30.4429C77.9419 30.743 79.1721 31.143 80.2922 31.6431C81.4123 32.1431 82.3824 32.7582 83.2025 33.4883C84.0226 34.2184 84.6577 35.0785 85.1077 36.0686C85.5678 37.0587 85.8028 38.1938 85.8128 39.474C85.8028 41.3542 85.3228 42.9844 84.3727 44.3645C83.4326 45.7347 82.0724 46.7998 80.2922 47.5599C78.522 48.31 76.3867 48.6851 73.8864 48.6851C71.4062 48.6851 69.2459 48.305 67.4057 47.5449C65.5755 46.7848 64.1453 45.6597 63.1152 44.1695C62.0951 42.6694 61.56 40.8141 61.51 38.6039H67.7957C67.8657 39.634 68.1608 40.4941 68.6808 41.1842C69.2109 41.8643 69.916 42.3793 70.7961 42.7294C71.6862 43.0694 72.6913 43.2394 73.8114 43.2394C74.9116 43.2394 75.8667 43.0794 76.6768 42.7594C77.4969 42.4393 78.1319 41.9943 78.582 41.4242C79.032 40.8541 79.2571 40.1991 79.2571 39.459C79.2571 38.7689 79.052 38.1888 78.642 37.7188C78.2419 37.2487 77.6519 36.8487 76.8718 36.5186C76.1017 36.1886 75.1566 35.8886 74.0365 35.6185L70.6911 34.7784C68.1008 34.1484 66.0555 33.1633 64.5554 31.8231C63.0552 30.4829 62.3101 28.6777 62.3201 26.4075C62.3101 24.5473 62.8052 22.9221 63.8053 21.5319C64.8154 20.1417 66.2006 19.0566 67.9608 18.2765C69.721 17.4964 71.7212 17.1064 73.9615 17.1064C76.2417 17.1064 78.2319 17.4964 79.9321 18.2765C81.6423 19.0566 82.9725 20.1417 83.9226 21.5319C84.8727 22.9221 85.3628 24.5323 85.3928 26.3625H79.1671ZM89.0119 22.8821V17.5264H114.245V22.8821H104.839V48.25H98.418V22.8821H89.0119Z" fill="#111111"/>
<path d="M199.938 30.4999L138.155 56.5469V4.45283L199.938 30.4999Z" fill="#111111"/>
<path d="M168.255 30.5001L133.403 45.0864V15.9137L168.255 30.5001Z" fill="#F8E643"/>
</svg>
