<svg xmlns="http://www.w3.org/2000/svg" viewBox="0 0 500 500"><g id="freepik--background-complete--inject-338"><rect x="79.51" y="63.47" width="37.38" height="9.89" style="fill:#f5f5f5"></rect><path d="M101.08,83.77s0-.06,0-.17v-.51q0-.7,0-2c0-1.71,0-4.16-.06-7.25l.11.11-37.37.08c.08-.09-.19.19.19-.19h0v5c0,1.65,0,3.27,0,4.86l-.18-.18,26.63.08,7.87.06,2.12,0h.75s0,0-.17,0h-.53l-2.09,0-7.82.06L63.71,84h-.19V73.9h0c.38-.38.1-.11.19-.19l37.37.07h.12v.12c0,3.12,0,5.6-.06,7.32q0,1.23,0,1.92c0,.2,0,.36,0,.49S101.09,83.78,101.08,83.77Z" style="fill:#e0e0e0"></path><rect x="428.01" y="214.89" width="37.38" height="9.89" style="fill:#f5f5f5"></rect><path d="M449.58,235.19s0-.06,0-.18v-.51c0-.46,0-1.11,0-1.94,0-1.71,0-4.16-.06-7.26l.11.12-37.37.07.19-.19h0v9.87l-.19-.19,26.64.09,7.86,0,2.13,0h.05l-2.09,0-7.82,0-26.77.09H412v-5c0-.83,0-1.66,0-2.5v-2.51h0l.2-.19,37.37.08h.12v.11c0,3.13-.05,5.6-.07,7.33,0,.82,0,1.46,0,1.92,0,.2,0,.36,0,.48S449.59,235.19,449.58,235.19Z" style="fill:#e0e0e0"></path><rect x="95.25" y="423.63" width="37.38" height="9.89" style="fill:#f5f5f5"></rect><path d="M116.82,443.94a1.62,1.62,0,0,1,0-.18c0-.14,0-.3,0-.51q0-.71,0-1.95c0-1.7,0-4.16-.06-7.25l.11.11-37.38.08.19-.19h0v9.88l-.19-.19,26.64.08,7.86.06,2.13,0h.55l.2,0h-.71L114,444l-7.82.06-26.77.08h-.18v-.18c0-1.59,0-3.22,0-4.87v-5h0l.19-.19,37.38.07h.12v.12c0,3.12,0,5.6-.07,7.32q0,1.23,0,1.92c0,.2,0,.36,0,.49A.92.92,0,0,1,116.82,443.94Z" style="fill:#e0e0e0"></path><path d="M373.74,253.22h24a27.6,27.6,0,0,1,27.6,27.6v89a0,0,0,0,1,0,0H346.14a0,0,0,0,1,0,0v-89A27.6,27.6,0,0,1,373.74,253.22Z" style="fill:#ebebeb"></path><polygon points="418.21 378.6 432.66 461.21 428.39 461.21 408.66 378.6 418.21 378.6" style="fill:#e0e0e0"></polygon><polygon points="361 378.6 346.56 461.54 350.83 461.54 370.56 378.6 361 378.6" style="fill:#e0e0e0"></polygon><path d="M431.15,378.41l-87.76.19a5.53,5.53,0,0,1-5.54-5.53h0a5.53,5.53,0,0,1,5.54-5.53H431a5.52,5.52,0,0,1,5.53,5.53h0A5.2,5.2,0,0,1,431.15,378.41Z" style="fill:#ebebeb"></path><path d="M432.13,367.59c0,.1-20,.19-44.61.19s-44.62-.09-44.62-.19,20-.19,44.62-.19S432.13,367.48,432.13,367.59Z" style="fill:#e0e0e0"></path><path d="M432.13,378.36c0,.14-20,.24-44.61.24s-44.62-.1-44.62-.24,20-.24,44.62-.24S432.13,378.23,432.13,378.36Z" style="fill:#e0e0e0"></path><rect x="412.42" y="46.17" width="7.14" height="35.55" transform="translate(-0.34 2.23) rotate(-0.31)" style="fill:#e0e0e0"></rect><rect x="350.49" y="46.29" width="18.5" height="19.62" transform="matrix(1, -0.01, 0.01, 1, -0.29, 1.92)" style="fill:#ebebeb"></rect><rect x="368.9" y="46.19" width="18.5" height="19.62" transform="matrix(1, -0.01, 0.01, 1, -0.29, 2.02)" style="fill:#f5f5f5"></rect><path d="M350.47,51.76q18.43.15,36.91-.17a.2.2,0,0,0,0-.39q-18.44-.11-36.91.22a.17.17,0,0,0,0,.34Z" style="fill:#e0e0e0"></path><rect x="338.95" y="65.63" width="33.61" height="15.99" transform="translate(-0.39 1.91) rotate(-0.31)" style="fill:#ebebeb"></rect><rect x="372.4" y="65.45" width="33.61" height="15.99" transform="translate(-0.39 2.09) rotate(-0.31)" style="fill:#f5f5f5"></rect><path d="M338.93,70.17c22.33.25,44.73,0,67.06-.34a.2.2,0,0,0,0-.39c-22.32-.12-44.73-.1-67.05.39a.17.17,0,0,0,0,.34Z" style="fill:#e0e0e0"></path><rect x="326.36" y="81.71" width="130.21" height="5.73" style="fill:#e0e0e0"></rect><rect x="347.68" y="84.46" width="5.29" height="19.55" style="fill:#e0e0e0"></rect><rect x="426.59" y="84.46" width="5.29" height="19.55" style="fill:#e0e0e0"></rect><rect x="419.42" y="32.91" width="7.14" height="48.89" transform="translate(-0.3 2.27) rotate(-0.31)" style="fill:#ebebeb"></rect><rect x="426.61" y="42.02" width="11.1" height="39.62" transform="translate(-0.33 2.32) rotate(-0.31)" style="fill:#f5f5f5"></rect><path d="M437.52,49.63a41.61,41.61,0,0,1-5.55.19,41.74,41.74,0,0,1-5.55-.19,77.11,77.11,0,0,1,11.1,0Z" style="fill:#e0e0e0"></path><path d="M437.52,48a38.7,38.7,0,0,1-5.55.2,38.82,38.82,0,0,1-5.55-.2,81.15,81.15,0,0,1,11.1,0Z" style="fill:#e0e0e0"></path><path d="M437.52,75.65a81.15,81.15,0,0,1-11.1,0,81.15,81.15,0,0,1,11.1,0Z" style="fill:#e0e0e0"></path><path d="M437.52,74a81.15,81.15,0,0,1-11.1,0,77.11,77.11,0,0,1,11.1,0Z" style="fill:#e0e0e0"></path><path d="M432.15,70.36c-.1,0-.19-4-.19-8.93s.09-8.93.19-8.93.2,4,.2,8.93S432.26,70.36,432.15,70.36Z" style="fill:#e0e0e0"></path><rect x="437.64" y="51.72" width="12.08" height="29.9" style="fill:#ebebeb"></rect><path d="M424.81,41.24a2.05,2.05,0,1,1-2.05-2.05A2.05,2.05,0,0,1,424.81,41.24Z" style="fill:#e0e0e0"></path><rect x="422.13" y="46.89" width="1.27" height="29.08" style="fill:#e0e0e0"></rect><path d="M232.35,55.49s0-.07,0-.18V54.8c0-.46,0-1.11,0-1.94,0-1.71,0-4.17-.06-7.26l.11.12L195,45.79l.19-.19h0v5c0,1.65,0,3.27,0,4.86L195,55.3l26.63.09,7.87,0,2.12,0h.56a.58.58,0,0,1,.19,0h-.7l-2.09,0-7.82.05L195,55.68h-.19V45.62h0l.19-.19,37.37.07h.12v.12c0,3.12-.05,5.6-.06,7.33q0,1.23,0,1.92c0,.19,0,.35,0,.48S232.36,55.49,232.35,55.49Z" style="fill:#e0e0e0"></path><path d="M237.42,45.6a1.49,1.49,0,0,1,0-.19c0-.14,0-.31,0-.52q0-.73,0-2c0-1.74,0-4.19-.07-7.2l.13.14L215,35.9c-.18.17.23-.23.18-.19h0V45.6l-.19-.18,16.07.09,4.68.05,1.26,0,.45,0a1.69,1.69,0,0,1-.41,0l-1.22,0-4.64.05L215,45.78h-.18v-5c0-.83,0-1.67,0-2.52V35.73h0s.36-.36.2-.19l22.45.06h.14v.13c0,3-.06,5.53-.07,7.28,0,.82,0,1.47,0,1.95A5.27,5.27,0,0,1,237.42,45.6Z" style="fill:#e0e0e0"></path><path d="M171.57,195.66a1.62,1.62,0,0,1,0-.18V195c0-.46,0-1.11,0-1.94,0-1.71,0-4.17-.06-7.26l.11.12-37.38.07.19-.19h0v9.87l-.19-.19,26.64.09,7.86.05,2.13,0,.55,0h-.51l-2.08,0-7.82,0-26.77.08H134v-.18c0-1.59,0-3.22,0-4.87v-5h0l.19-.19,37.38.07h.12v.12c0,3.12-.05,5.6-.07,7.32q0,1.23,0,1.92c0,.2,0,.36,0,.49S171.58,195.66,171.57,195.66Z" style="fill:#e0e0e0"></path><path d="M176.64,185.77a.86.86,0,0,1,0-.19c0-.14,0-.31,0-.52,0-.49,0-1.15,0-2,0-1.73-.05-4.18-.08-7.19l.14.14-22.46,0,.19-.19h0V181c0,1.65,0,3.25,0,4.79l-.18-.18,16.07.08,4.68.05,1.26,0a2.37,2.37,0,0,1,.45,0,2.87,2.87,0,0,1-.41,0l-1.22,0-4.64.05-16.19.09H154v-.18c0-1.54,0-3.14,0-4.79V175.9h0l.19-.19,22.46.05h.14v.14c0,3.05-.06,5.52-.08,7.28q0,1.23,0,2A5.27,5.27,0,0,1,176.64,185.77Z" style="fill:#e0e0e0"></path><path d="M313.2,404.13a.58.58,0,0,1,0-.18c0-.13,0-.3,0-.51,0-.46,0-1.11,0-1.94,0-1.71,0-4.17-.06-7.26l.12.12-37.38.07.19-.19h0v5c0,1.65,0,3.28,0,4.87l-.18-.19,26.64.09,7.86.05,2.12,0,.56,0h-.51l-2.09,0-7.81.05-26.77.08h-.19V394.26h0l.19-.19,37.38.07h.11v.12c0,3.12-.05,5.6-.06,7.32q0,1.24,0,1.92c0,.2,0,.36,0,.49S313.2,404.13,313.2,404.13Z" style="fill:#e0e0e0"></path><path d="M318.26,394.24s0-.07,0-.19v-.52c0-.49,0-1.15,0-2,0-1.74,0-4.19-.07-7.2l.13.14-22.45.05.19-.19h0v2.56c0,.85,0,1.69,0,2.52v4.79l-.18-.18,16.06.08,4.68.05,1.26,0,.45,0a2.78,2.78,0,0,1-.4,0l-1.23,0-4.64.06-16.18.08h-.18V384.37h0c-.05,0,.36-.36.19-.19l22.45,0h.14v.14c0,3,0,5.52-.07,7.28,0,.82,0,1.47,0,1.95A5.27,5.27,0,0,1,318.26,394.24Z" style="fill:#e0e0e0"></path></g><g id="freepik--Floor--inject-338"><path d="M478.73,461.5c0,.14-102.41.26-228.72.26s-228.74-.12-228.74-.26,102.39-.26,228.74-.26S478.73,461.35,478.73,461.5Z" style="fill:#263238"></path></g><g id="freepik--Desk--inject-338"><rect x="326.92" y="308.88" width="73.39" height="5.49" rx="2.59" style="fill:#263238"></rect><path d="M416.07,267.13H370a3.48,3.48,0,0,0-3.42,2.89L359,314.37h50.17a3.46,3.46,0,0,0,3.42-2.88l6.88-40.31A3.47,3.47,0,0,0,416.07,267.13Z" style="fill:#263238"></path><path d="M370.89,267.13c.14,0-1.46,10.69-3.56,23.83s-3.93,23.77-4.07,23.75,1.46-10.69,3.56-23.83S370.75,267.11,370.89,267.13Z" style="fill:#455a64"></path><path d="M395,291.27a2.89,2.89,0,1,1-2-3.78A3,3,0,0,1,395,291.27Z" style="fill:#fff"></path><path d="M461.25,299.92H433.16v-1.16h28.09a.58.58,0,0,1,.58.58h0A.58.58,0,0,1,461.25,299.92Z" style="fill:#92E3A9"></path><path d="M432.78,299.43s-2.37,0-5.29,0-5.28,0-5.28,0,2.37,0,5.28,0S432.78,299.41,432.78,299.43Z" style="fill:#263238"></path><path d="M436.65,299.92H424a3.51,3.51,0,0,1-3.51-3.51h0A3.51,3.51,0,0,1,424,292.9h12.63Z" style="fill:#92E3A9"></path><path d="M461.25,294.07H433.42a.27.27,0,0,1-.26-.27v-.63a.27.27,0,0,1,.26-.27h27.83a.58.58,0,0,1,.58.59h0A.58.58,0,0,1,461.25,294.07Z" style="fill:#92E3A9"></path><path d="M461,298.76H436.36a2.35,2.35,0,0,1-2.35-2.35h0a2.35,2.35,0,0,1,2.35-2.34H461A5.8,5.8,0,0,0,461,298.76Z" style="fill:#f5f5f5"></path><g style="opacity:0.30000000000000004"><path d="M434,299.92H423.17a2.66,2.66,0,0,1-2.66-2.66v-1.72a2.64,2.64,0,0,1,2.64-2.64h11.13C431.74,294.44,431.93,298.13,434,299.92Z"></path></g><path d="M458,296.63s-5.06,0-11.29,0-11.29,0-11.29,0,5.06,0,11.29,0S458,296.61,458,296.63Z" style="fill:#263238"></path><path d="M460.31,297.67s-5.06,0-11.29,0-11.28,0-11.28,0,5.05,0,11.28,0S460.31,297.65,460.31,297.67Z" style="fill:#263238"></path><path d="M459.62,295.15s-5.05,0-11.28,0-11.29,0-11.29,0,5.05,0,11.29,0S459.62,295.13,459.62,295.15Z" style="fill:#263238"></path><path d="M432.78,293.49s-2.37,0-5.29,0-5.28,0-5.28,0,2.37-.05,5.28-.05S432.78,293.46,432.78,293.49Z" style="fill:#263238"></path><path d="M433.64,313.89H419.12a4.52,4.52,0,0,1-4.52-4.52h0a4.52,4.52,0,0,1,4.52-4.52h14.52a1.75,1.75,0,0,1,1.76,1.75v5.54A1.75,1.75,0,0,1,433.64,313.89Z" style="fill:#92E3A9"></path><path d="M467.07,306.35H431.33a.44.44,0,0,1-.44-.43v-.64a.44.44,0,0,1,.44-.43h35.74a.76.76,0,0,1,.75.75h0A.76.76,0,0,1,467.07,306.35Z" style="fill:#92E3A9"></path><path d="M467.07,313.89H431.33a.44.44,0,0,1-.44-.43v-.64a.44.44,0,0,1,.44-.43h35.74a.76.76,0,0,1,.75.75h0A.76.76,0,0,1,467.07,313.89Z" style="fill:#92E3A9"></path><path d="M466.72,312.39H435a3,3,0,0,1-3-3h0a3,3,0,0,1,3-3h31.71A7.47,7.47,0,0,0,466.72,312.39Z" style="fill:#f5f5f5"></path><g style="opacity:0.30000000000000004"><path d="M432,313.89H419.07a4.47,4.47,0,0,1-4.47-4.47h0a4.58,4.58,0,0,1,4.57-4.57h13.17C429.06,306.83,429.31,311.58,432,313.89Z"></path></g><path d="M462.87,309.65s-6.51,0-14.54,0-14.53,0-14.53,0,6.5,0,14.53,0S462.87,309.63,462.87,309.65Z" style="fill:#263238"></path><path d="M465.86,311s-6.51,0-14.54,0-14.53,0-14.53,0,6.51,0,14.53,0S465.86,311,465.86,311Z" style="fill:#263238"></path><path d="M465,308.4s-6.51.05-14.54.05-14.53,0-14.53-.05,6.5,0,14.53,0S465,308.38,465,308.4Z" style="fill:#263238"></path><path d="M430.4,313.26s-3,0-6.8,0-6.8,0-6.8,0,3-.05,6.8-.05S430.4,313.23,430.4,313.26Z" style="fill:#263238"></path><path d="M430.4,305.6s-3,0-6.8,0-6.8,0-6.8,0,3,0,6.8,0S430.4,305.58,430.4,305.6Z" style="fill:#263238"></path><path d="M440.68,304.88H426.49a2.59,2.59,0,0,1-2.59-2.59h0a2.59,2.59,0,0,1,2.59-2.58h14.19a.12.12,0,0,1,.12.12v4.93A.12.12,0,0,1,440.68,304.88Z" style="fill:#455a64"></path><path d="M466.53,300.93H437.41a.28.28,0,0,1-.27-.28V300a.27.27,0,0,1,.27-.27h29.12a.61.61,0,0,1,.61.61h0A.61.61,0,0,1,466.53,300.93Z" style="fill:#455a64"></path><path d="M466.53,304.88H437.41a.27.27,0,0,1-.27-.27v-.67a.28.28,0,0,1,.27-.28h29.12a.61.61,0,0,1,.61.61h0A.61.61,0,0,1,466.53,304.88Z" style="fill:#455a64"></path><path d="M466.24,303.66H439.4a1.37,1.37,0,0,1-1.37-1.37h0a1.36,1.36,0,0,1,1.37-1.36h26.84A2.06,2.06,0,0,0,466.24,303.66Z" style="fill:#f5f5f5"></path><g style="opacity:0.30000000000000004"><path d="M438,304.88H426.47a2.57,2.57,0,0,1-2.57-2.56h0a2.61,2.61,0,0,1,2.61-2.61h11.8C435.65,300.84,435.85,303.56,438,304.88Z"></path></g><path d="M463.12,302.08s-5.29,0-11.81,0-11.81,0-11.81,0,5.28,0,11.81,0S463.12,302.06,463.12,302.08Z" style="fill:#263238"></path><path d="M465.55,302.82s-5.29,0-11.81,0-11.81,0-11.81,0,5.28-.05,11.81-.05S465.55,302.79,465.55,302.82Z" style="fill:#263238"></path><path d="M436.74,304.37s-2.48,0-5.53,0-5.53,0-5.53,0,2.48,0,5.53,0S436.74,304.35,436.74,304.37Z" style="fill:#263238"></path><path d="M436.74,300.32s-2.48,0-5.53,0-5.53,0-5.53,0,2.48-.05,5.53-.05S436.74,300.29,436.74,300.32Z" style="fill:#263238"></path><path d="M466.79,299.71s-9.08,0-20.28,0-20.28,0-20.28,0,9.08,0,20.28,0S466.79,299.68,466.79,299.71Z" style="fill:#263238"></path><polygon points="450.51 295.07 450.51 297.89 451.48 297.26 452.57 297.89 452.57 295.07 450.51 295.07" style="fill:#92E3A9"></polygon><polygon points="472.29 461.47 476.57 461.47 457.27 320.95 449.27 320.95 472.29 461.47" style="fill:#e0e0e0"></polygon><path d="M472.29,461.47s-.05-.23-.13-.7-.21-1.19-.36-2.1c-.32-1.86-.78-4.59-1.37-8.09-1.18-7.07-2.88-17.29-5-29.94-4.18-25.39-10-60.53-16.43-99.64l-.05-.31h8.53l0,.23c9.43,68.58,17.2,125.75,19.11,140.54v.07h-.07l-3.25,0-1,0,1.07,0,3.21,0-.05.06C474.37,446.72,466.43,389.57,457,321l.26.22h-8l.26-.3,16.2,99.51,4.83,30c.57,3.54,1,6.29,1.3,8.17q.22,1.38.33,2.13C472.26,461.21,472.29,461.47,472.29,461.47Z" style="fill:#263238"></path><polygon points="311.63 461.47 307.35 461.47 326.66 320.95 334.65 320.95 311.63 461.47" style="fill:#e0e0e0"></polygon><path d="M311.63,461.47s0-.26.1-.74.19-1.21.33-2.13c.3-1.88.74-4.63,1.3-8.17,1.14-7.09,2.79-17.33,4.84-30,4.12-25.36,9.84-60.45,16.2-99.51l.25.3h-8l.26-.22c-9.43,68.58-17.37,125.73-19.51,140.48l-.06-.06,3.22,0c.71,0,1.06,0,1.06,0l-1,0-3.25,0h-.07v-.07c1.92-14.79,9.69-72,19.11-140.54l0-.23H335l0,.31c-6.45,39.11-12.24,74.25-16.43,99.64-2.11,12.65-3.81,22.87-5,29.94-.6,3.5-1.06,6.23-1.37,8.09q-.24,1.36-.36,2.1C311.68,461.24,311.63,461.47,311.63,461.47Z" style="fill:#263238"></path><rect x="301.56" y="317.98" width="172.13" height="45.32" style="fill:#ae7461"></rect><rect x="301.56" y="314.37" width="174.39" height="7.23" style="fill:#6f4439"></rect><rect x="301.55" y="314.41" width="42.98" height="48.94" style="opacity:0.30000000000000004"></rect><path d="M344.51,363.35c-.14,0-.26-10.91-.26-24.35s.12-24.35.26-24.35.26,10.9.26,24.35S344.65,363.35,344.51,363.35Z" style="fill:#263238"></path></g><g id="freepik--Shelf--inject-338"><path d="M106.24,83.32a1.25,1.25,0,0,0-1.06-.35,5.7,5.7,0,0,0-3.58,1.42,16.54,16.54,0,0,0,.86-3c.08-.42.1-.94-.26-1.16s-.92.09-1.24.45a7.91,7.91,0,0,0-1.81,3.46c-.19-1.1-.37-2.2-.55-3.3-.06-.36-.17-.78-.51-.9s-.84.28-1,.7a4.85,4.85,0,0,0-.16,3.74l-2.3-2.28c-.23-.23-.52-.48-.84-.41-.51.11-.51.86-.3,1.34a5.1,5.1,0,0,0,2.64,2.63l4.34.72c1.7.11,4.35-.22,5.47-1.49C106.29,84.43,106.6,83.77,106.24,83.32Z" style="fill:#92E3A9"></path><path d="M106.29,88.36c-4.13-3.24-11.38-3.7-16.16-1.52a17.23,17.23,0,0,0-9.45,13.71c-.5,5.23,2,10.53,4.16,15.33l20.84.09c2.5-4.13,5.1-8.75,5.28-13.58S110.08,91.35,106.29,88.36Z" style="fill:#455a64"></path><g style="opacity:0.1"><path d="M90.23,86.8a17.37,17.37,0,0,0-9.56,13.89c-.4,5.24,2.11,10.49,4.26,15.28h3.24s-2.88-7.66-3.17-9-1.24-5.44,0-8.78,1.42-5.26,4.66-8.58a16.06,16.06,0,0,1,7.16-4.2A16.74,16.74,0,0,0,90.23,86.8Z"></path></g><path d="M96.94,85.5l-.09,0-.28.07-.44.09a4.52,4.52,0,0,0-.6.16A12.14,12.14,0,0,0,92,87.53a16,16,0,0,0-4,4.18,23.16,23.16,0,0,0-1.68,3A26.31,26.31,0,0,0,85,98.17a15.87,15.87,0,0,0-.35,7.07,31.14,31.14,0,0,0,1.57,5.62c.58,1.56,1.09,2.81,1.43,3.67.17.43.3.76.39,1l.1.26,0,.09s0,0,0-.08l-.11-.26c-.11-.24-.25-.57-.43-1-.36-.86-.89-2.1-1.49-3.66a29.81,29.81,0,0,1-1.62-5.63,15.92,15.92,0,0,1,.34-7.15,25.72,25.72,0,0,1,1.31-3.49,23.53,23.53,0,0,1,1.71-3,15.74,15.74,0,0,1,4.09-4.19,11.43,11.43,0,0,1,3.59-1.65,3.47,3.47,0,0,1,.61-.14l.45-.08.27,0C96.9,85.5,96.94,85.49,96.94,85.5Z" style="fill:#263238"></path><path d="M103,115.81a1.9,1.9,0,0,1,.09-.31l.32-.88c.27-.77.67-1.87,1.14-3.24s1-3,1.44-4.87a31.53,31.53,0,0,0,.93-6.13,20.91,20.91,0,0,0-.64-6.16,16.73,16.73,0,0,0-2-4.65,14.42,14.42,0,0,0-2.13-2.66c-.28-.29-.54-.48-.69-.62l-.24-.23a1.66,1.66,0,0,1,.26.19,7.88,7.88,0,0,1,.72.61,12.48,12.48,0,0,1,2.19,2.64,16.39,16.39,0,0,1,2,4.68,21.51,21.51,0,0,1,.66,6.2,31.67,31.67,0,0,1-.95,6.17c-.47,1.87-1,3.51-1.49,4.88s-.91,2.46-1.2,3.21l-.35.87C103.06,115.71,103,115.81,103,115.81Z" style="fill:#263238"></path><path d="M99,85.62a1.48,1.48,0,0,1-.08.3c-.07.22-.16.5-.27.87s-.27.83-.42,1.36-.35,1.14-.54,1.82c-.39,1.35-.79,3-1.21,4.78s-.79,3.81-1.1,5.93-.51,4.15-.64,6c0,.92-.11,1.8-.12,2.63,0,.41,0,.81,0,1.19s0,.75,0,1.1c0,.7,0,1.34,0,1.89s0,1,.07,1.43,0,.68,0,.91,0,.31,0,.31a2.1,2.1,0,0,1-.05-.31l-.09-.9c0-.39-.08-.87-.1-1.43s-.07-1.19-.08-1.9c0-.35,0-.72,0-1.1s0-.78,0-1.2c0-.82.06-1.7.1-2.63.12-1.86.31-3.9.62-6s.72-4.13,1.13-5.94.84-3.43,1.25-4.78c.19-.67.39-1.28.56-1.81s.32-1,.46-1.36.23-.64.3-.85S99,85.62,99,85.62Z" style="fill:#263238"></path><rect x="78.04" y="114.16" width="35.89" height="6.36" style="fill:#92E3A9"></rect><polygon points="80.72 119.26 85.08 138.26 106.47 138.26 111.25 119.26 80.72 119.26" style="fill:#92E3A9"></polygon><path d="M113.91,120.53c0,.07-8.1.12-18.08.12s-18.08-.05-18.08-.12,8.09-.13,18.08-.13S113.91,120.46,113.91,120.53Z" style="fill:#263238"></path><path d="M99,85.62S93,103,94.65,114.16l5.67,0,3.37,0s3.09-7.85,3.44-13.73A21.12,21.12,0,0,0,104.61,90a13.15,13.15,0,0,0-3.33-4A2.46,2.46,0,0,0,99,85.62Z" style="opacity:0.1"></path><path d="M80.78,102.39c0,.07-.48,0-.9-.41s-.63-.76-.56-.81.36.25.75.58S80.81,102.31,80.78,102.39Z" style="fill:#263238"></path><path d="M82.2,100.51c.06.06-.24.48-.67.95s-.82.81-.89.75.24-.48.67-.95S82.14,100.45,82.2,100.51Z" style="fill:#263238"></path><path d="M85,92.27c0,.06-.46.57-1.15,1.13a4.39,4.39,0,0,1-1.34.9c-.06-.06.46-.57,1.15-1.13A4.15,4.15,0,0,1,85,92.27Z" style="fill:#263238"></path><path d="M87.35,92.35c0,.06-.54-.24-.93-.82s-.51-1.15-.43-1.17.31.46.68,1S87.4,92.28,87.35,92.35Z" style="fill:#263238"></path><path d="M90.2,91.73a2.28,2.28,0,0,1-1.36.63,2.18,2.18,0,0,1-1.49-.09,11.5,11.5,0,0,1,1.44-.21A12.35,12.35,0,0,1,90.2,91.73Z" style="fill:#263238"></path><path d="M84.49,99.07c-.06.05-.4-.27-.75-.72s-.58-.85-.52-.9.41.27.76.72S84.56,99,84.49,99.07Z" style="fill:#263238"></path><path d="M86.48,97.76c0,.06-.33.42-.84.8s-1,.63-1,.56.32-.42.84-.8S86.43,97.69,86.48,97.76Z" style="fill:#263238"></path><path d="M84.8,107c0,.08-.5,0-1.06-.16s-1-.37-1-.45.5,0,1.06.16S84.82,106.87,84.8,107Z" style="fill:#263238"></path><path d="M86.34,104.66c.07,0-.22.59-.65,1.21s-.83,1.1-.9,1,.22-.59.65-1.22S86.27,104.61,86.34,104.66Z" style="fill:#263238"></path><path d="M84.69,106.62c-.08,0-.42-.43-.78-1.05a3,3,0,0,1-.51-1.2c.07,0,.42.43.78,1A3,3,0,0,1,84.69,106.62Z" style="fill:#263238"></path><path d="M83.17,110.44c0,.08-.53.09-1.14-.06s-1.08-.38-1-.46.52,0,1.12.16S83.18,110.35,83.17,110.44Z" style="fill:#263238"></path><path d="M83.76,108.65c.08,0,0,.45-.23.93s-.44.84-.52.81,0-.45.24-.93S83.69,108.62,83.76,108.65Z" style="fill:#263238"></path><path d="M82.88,110.32c-.07.05-.46-.46-.86-1.12a3.41,3.41,0,0,1-.61-1.29c.08,0,.46.46.87,1.13A3.55,3.55,0,0,1,82.88,110.32Z" style="fill:#263238"></path><path d="M82.75,94.57c-.07.05-.45-.39-.85-1s-.68-1.1-.61-1.15.46.39.86,1S82.82,94.52,82.75,94.57Z" style="fill:#263238"></path><path d="M79.88,99.23a3,3,0,0,1,.47,1.27,3.09,3.09,0,0,1,.18,1.33,3.1,3.1,0,0,1-.47-1.26A3.13,3.13,0,0,1,79.88,99.23Z" style="fill:#263238"></path><path d="M94.84,101.37c-.06.06-.55-.38-1-1.05A2.83,2.83,0,0,1,93.21,99c.08,0,.43.5.87,1.14A5.18,5.18,0,0,1,94.84,101.37Z" style="fill:#263238"></path><path d="M97.38,99.19c.06.06-.42.61-1.08,1.23a4.4,4.4,0,0,1-1.29,1c-.06-.06.43-.61,1.08-1.23S97.32,99.12,97.38,99.19Z" style="fill:#263238"></path><path d="M95.13,101a4.55,4.55,0,0,1-.36-1.57,4.62,4.62,0,0,1-.06-1.61,8.57,8.57,0,0,1,.42,3.18Z" style="fill:#263238"></path><path d="M93.74,103.11c-.07,0,.14-.51.46-1s.65-.93.72-.89-.13.51-.46,1S93.81,103.15,93.74,103.11Z" style="fill:#263238"></path><path d="M96.34,103.74c-.08,0-.46-.48-.78-1.21a2.92,2.92,0,0,1-.38-1.39,4.32,4.32,0,0,1,.66,1.27A4.74,4.74,0,0,1,96.34,103.74Z" style="fill:#263238"></path><path d="M96.86,92.42c-.07,0-.52-.47-1-1.15a3.76,3.76,0,0,1-.74-1.33,4,4,0,0,1,1,1.16A4.11,4.11,0,0,1,96.86,92.42Z" style="fill:#263238"></path><path d="M98.42,90.92c.06.06-.25.46-.68.89s-.82.73-.88.67.24-.45.67-.88S98.36,90.86,98.42,90.92Z" style="fill:#263238"></path><path d="M96.82,88.73A5.82,5.82,0,0,1,97,90.57a5.82,5.82,0,0,1-.1,1.85,5.34,5.34,0,0,1-.2-1.84A5.64,5.64,0,0,1,96.82,88.73Z" style="fill:#263238"></path><path d="M106.44,94.4c0,.08-.54,0-1.12-.26s-1-.56-.95-.63.51.1,1.07.35S106.46,94.32,106.44,94.4Z" style="fill:#263238"></path><path d="M107,92c.09,0,.11.58,0,1.27s-.44,1.19-.52,1.16A12.6,12.6,0,0,1,107,92Z" style="fill:#263238"></path><path d="M106.19,94.34A5.2,5.2,0,0,1,105.06,93a5.55,5.55,0,0,1-.88-1.51,9.9,9.9,0,0,1,2,2.84Z" style="fill:#263238"></path><path d="M105.49,96.92a3.08,3.08,0,0,1,.16-1.33c.16-.72.36-1.28.45-1.26a3.08,3.08,0,0,1-.16,1.33A3,3,0,0,1,105.49,96.92Z" style="fill:#263238"></path><path d="M108.22,96a3,3,0,0,1-1.12-.64c-.57-.42-1-.81-.95-.88s.56.22,1.13.63S108.27,96,108.22,96Z" style="fill:#263238"></path><path d="M94.84,109.89a2.47,2.47,0,0,1-1.24-.54c-.62-.41-1-.87-1-.93s.54.28,1.14.68S94.88,109.81,94.84,109.89Z" style="fill:#263238"></path><path d="M96,108.07c.07.05-.23.52-.66,1s-.84.9-.91.85.24-.52.67-1S95.9,108,96,108.07Z" style="fill:#263238"></path><path d="M93.75,106.13a4.61,4.61,0,0,1,.49,1.59,4.73,4.73,0,0,1,.18,1.65,4.54,4.54,0,0,1-.48-1.59A4.6,4.6,0,0,1,93.75,106.13Z" style="fill:#263238"></path><path d="M87.63,90c.08,0,.12.52,0,1.13s-.47,1-.54,1,.09-.5.24-1.08S87.54,90,87.63,90Z" style="fill:#263238"></path><path d="M106.1,106.58c-.07,0-.5-.42-1-1a3.62,3.62,0,0,1-.73-1.23c.07,0,.51.42,1,1S106.17,106.53,106.1,106.58Z" style="fill:#263238"></path><path d="M107.89,104.24a4.16,4.16,0,0,1-.85,1.37c-.53.71-1,1.24-1.09,1.19a4.76,4.76,0,0,1,.85-1.37C107.34,104.72,107.82,104.19,107.89,104.24Z" style="fill:#263238"></path><path d="M107.13,101.43c-.06.06-.53-.33-.91-1a2.2,2.2,0,0,1-.45-1.24c.09,0,.34.49.71,1.08S107.19,101.37,107.13,101.43Z" style="fill:#263238"></path><path d="M108.15,98.92a2.83,2.83,0,0,1-.3,1.2c-.24.63-.49,1.12-.57,1.09s0-.57.29-1.2S108.07,98.89,108.15,98.92Z" style="fill:#263238"></path><path d="M103.69,112.59c-.06.06-.5-.39-1-1a3.59,3.59,0,0,1-.74-1.19c.07-.05.51.4,1,1S103.76,112.54,103.69,112.59Z" style="fill:#263238"></path><path d="M106.55,110.78c0,.07-.51.55-1.24,1.08a4.77,4.77,0,0,1-1.41.84c-.05-.07.5-.56,1.23-1.08A4.62,4.62,0,0,1,106.55,110.78Z" style="fill:#263238"></path><path d="M112.65,100.4a7.87,7.87,0,0,1-.85,1.48,8.26,8.26,0,0,1-.92,1.46,3.8,3.8,0,0,1,.66-1.61A3.51,3.51,0,0,1,112.65,100.4Z" style="fill:#263238"></path><path d="M110.94,102.9a3.82,3.82,0,0,1-.59-1.46,4.15,4.15,0,0,1-.3-1.55,4,4,0,0,1,.59,1.46A4.4,4.4,0,0,1,110.94,102.9Z" style="fill:#263238"></path><path d="M111.35,99.07a5.41,5.41,0,0,1,0,1.86,5.81,5.81,0,0,1-.33,1.82,11.83,11.83,0,0,1,.35-3.68Z" style="fill:#263238"></path><path d="M109.71,108.19c-.07,0-.3-.32-.5-.78s-.31-.88-.23-.91.3.32.5.79S109.79,108.16,109.71,108.19Z" style="fill:#263238"></path><path d="M112.27,106.34c0,.07-.46.58-1.16,1.15a4.39,4.39,0,0,1-1.35.91,4.72,4.72,0,0,1,1.16-1.15A4.77,4.77,0,0,1,112.27,106.34Z" style="fill:#263238"></path><path d="M109.14,92.72c-.06,0-.55-.36-1.1-.94s-.94-1.08-.88-1.14.56.36,1.1.94S109.2,92.66,109.14,92.72Z" style="fill:#263238"></path><rect x="57.64" y="136.99" width="75.08" height="7.09" style="fill:#455a64"></rect><rect x="68.71" y="142.53" width="6.62" height="10.82" style="fill:#455a64"></rect><rect x="114.05" y="142.53" width="6.62" height="10.82" style="fill:#455a64"></rect></g><g id="freepik--Furniture--inject-338"><path d="M50.1,461.67c.37-1.2,10.57-58.83,10.57-58.83h11L56,461.67Z" style="fill:#6f4439"></path><path d="M166.16,461.67c-.36-1.2-10.56-58.83-10.56-58.83h-11l15.69,58.83Z" style="fill:#6f4439"></path><rect x="32.05" y="241.73" width="36.11" height="173.96" style="fill:#6f4439"></rect><rect x="56.09" y="242.13" width="118.62" height="173.47" style="fill:#ae7461"></rect><rect x="52.08" y="241.73" width="126.62" height="5.86" style="fill:#ae7461"></rect><path d="M178.48,247.7c0,.15-28.45.26-63.53.26s-63.54-.11-63.54-.26,28.44-.26,63.54-.26S178.48,247.56,178.48,247.7Z" style="fill:#6f4439"></path><path d="M168.27,288.76s0-.21,0-.59,0-1,0-1.69c0-1.51,0-3.7,0-6.54,0-5.7-.06-14-.1-24.39l.17.17-105.74.09h0l.26-.26v33.21l-.26-.26,75.59.12,22.13.07,5.95,0,1.55,0,.53,0h-.5l-1.52,0-5.89,0-22.08.07L62.52,289h-.25v-.25c0-10.52,0-21.7,0-33.21v-.26h.27l105.74.09h.17v.17c0,10.46-.07,18.77-.09,24.49,0,2.82,0,5,0,6.5,0,.72,0,1.27,0,1.66S168.27,288.76,168.27,288.76Z" style="fill:#6f4439"></path><path d="M168.27,328.71s0-.21,0-.59,0-1,0-1.7c0-1.5,0-3.69,0-6.53,0-5.7-.06-14-.1-24.39l.17.17-105.74.09h0l.26-.26v33.21l-.26-.26,75.59.12,22.13.07,5.95,0,1.55,0,.53,0h-.5l-1.52,0-5.89,0-22.08.07L62.52,329h-.25v-.25c0-10.53,0-21.7,0-33.21v-.26h.27l105.74.09h.17v.17c0,10.46-.07,18.77-.09,24.49,0,2.82,0,5,0,6.5,0,.72,0,1.27,0,1.66S168.27,328.71,168.27,328.71Z" style="fill:#6f4439"></path><path d="M168.27,368.66s0-.21,0-.59,0-1,0-1.7c0-1.5,0-3.69,0-6.53,0-5.7-.06-14-.1-24.39l.17.17-105.74.09h0l.26-.26v33.21l-.26-.26,75.59.12,22.13.07,5.95,0,1.55,0,.53,0h-.5l-1.52,0-5.89,0-22.08.07-75.76.12h-.25v-.25c0-10.53,0-21.71,0-33.21v-.26h.27l105.74.09h.17v.17c0,10.46-.07,18.77-.09,24.49,0,2.82,0,5,0,6.5,0,.72,0,1.27,0,1.66S168.27,368.66,168.27,368.66Z" style="fill:#6f4439"></path><path d="M168.27,408.61s0-.21,0-.59,0-1,0-1.7c0-1.5,0-3.69,0-6.53,0-5.7-.06-14-.1-24.39l.17.17-105.74.09h0l.26-.26v33.21l-.26-.26,75.59.12,22.13.07,5.95,0,1.55,0,.53,0h-.5l-1.52,0-5.89,0-22.08.07-75.76.12h-.25v-.25c0-10.53,0-21.71,0-33.21v-.26h.27l105.74.09h.17v.17c0,10.46-.07,18.77-.09,24.49,0,2.82,0,5,0,6.5,0,.72,0,1.27,0,1.66S168.27,408.61,168.27,408.61Z" style="fill:#6f4439"></path><rect x="23.85" y="241.73" width="18.02" height="5.98" style="fill:#6f4439"></rect><path d="M117.29,269.22a3,3,0,1,1-3.74,2.12A3,3,0,0,1,117.29,269.22Z" style="fill:#f5f5f5"></path><path d="M117.29,308.41a3,3,0,1,1-3.74,2.12A3,3,0,0,1,117.29,308.41Z" style="fill:#f5f5f5"></path><path d="M117.29,349.12a3,3,0,1,1-3.74,2.12A3,3,0,0,1,117.29,349.12Z" style="fill:#f5f5f5"></path><path d="M117.29,389.73a3,3,0,1,1-3.74,2.11A3,3,0,0,1,117.29,389.73Z" style="fill:#f5f5f5"></path></g><g id="freepik--speech-bubble-2--inject-338"><path d="M300.18,127.49a20.52,20.52,0,1,1,7.91,16.24h0l-6.89.89,2-6.38A20.38,20.38,0,0,1,300.18,127.49Z" style="fill:#fff"></path><path d="M300.18,127.49a15.59,15.59,0,0,0,.15,3,20.23,20.23,0,0,0,2.76,7.85v-.08l-2,6.37a.14.14,0,0,0,.09.17h.06l6.89-.86a.16.16,0,0,0,.13-.17l0-.08h0l-.21.22a20.72,20.72,0,0,0,8.31,3.91,19.06,19.06,0,0,0,5,.44l1.3-.06c.44,0,.87-.12,1.31-.18a20.14,20.14,0,0,0,2.62-.58,20.7,20.7,0,0,0,5-2.28l.61-.37.57-.42c.38-.29.77-.55,1.14-.87a21.9,21.9,0,0,0,2.08-2,24.29,24.29,0,0,0,1.83-2.3,22,22,0,0,0,1.47-2.6,24.29,24.29,0,0,0,1.13-2.79,23.33,23.33,0,0,0,.67-3,20.45,20.45,0,0,0-.08-6.94,21.53,21.53,0,0,0-2.28-6.34,20.59,20.59,0,0,0-4-5.1,23,23,0,0,0-2.47-2,23.88,23.88,0,0,0-2.69-1.51l-.69-.33c-.23-.11-.47-.18-.71-.27-.47-.17-.93-.36-1.41-.51a20.93,20.93,0,0,0-2.86-.63,19.58,19.58,0,0,0-2.84-.25,12.84,12.84,0,0,0-1.39,0,12.08,12.08,0,0,0-1.36.1,20.54,20.54,0,0,0-15,9.48,23.14,23.14,0,0,0-1.58,3,21.27,21.27,0,0,0-.89,2.71c-.11.42-.21.81-.29,1.18s-.11.72-.16,1-.09.63-.13.9,0,.53,0,.76c0,.43,0,.77,0,1v.35s0-.12,0-.35,0-.58.08-1c0-.22,0-.47.05-.75s.09-.57.15-.89.11-.67.17-1,.2-.75.3-1.16a22.54,22.54,0,0,1,.92-2.68,24.12,24.12,0,0,1,1.59-3,20.73,20.73,0,0,1,5.66-5.84,20.47,20.47,0,0,1,9.2-3.43,12.08,12.08,0,0,1,1.35-.1c.45,0,.91-.07,1.37,0a20.39,20.39,0,0,1,2.78.26,22,22,0,0,1,2.82.63c.46.15.92.34,1.38.5.23.09.47.17.7.27l.67.33a20.94,20.94,0,0,1,2.64,1.49,22.21,22.21,0,0,1,2.42,2,19.84,19.84,0,0,1,3.95,5,20.81,20.81,0,0,1,2.23,6.22,19.89,19.89,0,0,1,.08,6.8,22.2,22.2,0,0,1-.66,2.93,22.8,22.8,0,0,1-2.55,5.29,21.94,21.94,0,0,1-1.79,2.26,21.16,21.16,0,0,1-2,2c-.35.31-.75.57-1.12.85l-.56.42-.59.36a20.87,20.87,0,0,1-4.94,2.25,21.68,21.68,0,0,1-2.58.57c-.43.06-.86.14-1.28.18l-1.29.07a19.64,19.64,0,0,1-4.94-.42,20.63,20.63,0,0,1-8.21-3.82.15.15,0,0,0-.21,0,.17.17,0,0,0,0,.19h0l.11-.25-6.89.91.15.17c.72-2.36,1.37-4.51,2-6.39a.14.14,0,0,0,0-.09,20.63,20.63,0,0,1-2.84-7.75c-.14-1-.18-1.69-.22-2.19l0-.56C300.19,127.55,300.19,127.49,300.18,127.49Z" style="fill:#263238"></path><path d="M314.87,127.54a1.93,1.93,0,1,1-1.92-1.93A1.93,1.93,0,0,1,314.87,127.54Z" style="fill:#263238"></path><path d="M322.58,127.56a1.93,1.93,0,1,1-1.92-1.93A1.94,1.94,0,0,1,322.58,127.56Z" style="fill:#263238"></path><path d="M330.26,126.62a1.93,1.93,0,1,1-2.62-.71A1.93,1.93,0,0,1,330.26,126.62Z" style="fill:#263238"></path></g><g id="freepik--speech-bubble-1--inject-338"><path d="M269.81,58.31A20.06,20.06,0,0,0,251.75,80.2,22.08,22.08,0,0,0,255.63,91l5.11,4.59h0a20.7,20.7,0,0,0,12.91,2.66,20.07,20.07,0,1,0-3.84-39.95Z" style="fill:#fff"></path><path d="M290.77,72a1.34,1.34,0,0,1-.14-.3c-.1-.22-.22-.52-.38-.89a9.43,9.43,0,0,0-.66-1.42,15.07,15.07,0,0,0-1.07-1.85,19.38,19.38,0,0,0-3.84-4.38,20.12,20.12,0,0,0-25.63-.5,19.14,19.14,0,0,0-2.13,1.92,22.05,22.05,0,0,0-3.38,4.83,21.13,21.13,0,0,0-1.13,2.83,19.18,19.18,0,0,0-1,6.15,19.82,19.82,0,0,0,4,12,19.36,19.36,0,0,0,4.46,4.35,18.35,18.35,0,0,0,5.37,2.71,22.35,22.35,0,0,0,2.84.73,21.26,21.26,0,0,0,2.85.26,20.16,20.16,0,0,0,20.24-15.74,19.48,19.48,0,0,0,.45-5.81,15.08,15.08,0,0,0-.25-2.12,10.22,10.22,0,0,0-.31-1.53l-.24-.94a1.31,1.31,0,0,1-.06-.32,1.19,1.19,0,0,1,.11.31l.29.93a9.15,9.15,0,0,1,.36,1.53,13.15,13.15,0,0,1,.3,2.13,19,19,0,0,1-.38,5.88,20.47,20.47,0,0,1-10,13.57A20.85,20.85,0,0,1,268,98.62a21.36,21.36,0,0,1-2.91-.73,24.39,24.39,0,0,1-2.84-1.14,22.84,22.84,0,0,1-2.66-1.63A19.75,19.75,0,0,1,255,90.67a22,22,0,0,1-3-5.82,21.75,21.75,0,0,1-1-6.5,19.75,19.75,0,0,1,1-6.3,23.11,23.11,0,0,1,1.17-2.9,22.68,22.68,0,0,1,1.59-2.61,21.58,21.58,0,0,1,1.89-2.33,20.1,20.1,0,0,1,2.18-2,20.59,20.59,0,0,1,10-4.22,20.49,20.49,0,0,1,16.15,4.88,19.24,19.24,0,0,1,3.82,4.49,13.43,13.43,0,0,1,1,1.88,9.51,9.51,0,0,1,.63,1.45c.13.38.24.68.33.91A1.37,1.37,0,0,1,290.77,72Z" style="fill:#263238"></path><path d="M274.31,103a3.92,3.92,0,1,1-5.22-1.87A3.91,3.91,0,0,1,274.31,103Z" style="fill:#fff"></path><path d="M274.31,103s-.19-.3-.59-.75a3.89,3.89,0,0,0-2.18-1.23,3.71,3.71,0,1,0,2.55,5.37,4,4,0,0,0,.43-2.46c-.1-.6-.25-.92-.21-.93a1.83,1.83,0,0,1,.4.89,3.89,3.89,0,0,1-.3,2.67,4.11,4.11,0,0,1-3.24,2.25,4.14,4.14,0,0,1-3.35-7,4.11,4.11,0,0,1,3.8-1.09,3.9,3.9,0,0,1,2.25,1.45C274.25,102.66,274.34,103,274.31,103Z" style="fill:#263238"></path><path d="M280.75,77a5.49,5.49,0,0,0-1.3-3.07,5.4,5.4,0,0,0-2.71-1.82,4.31,4.31,0,0,0-4.83,2,4.47,4.47,0,0,0-1.22-1.44,4.38,4.38,0,0,0-3.34-.79,5.35,5.35,0,0,0-2.85,1.59,5.59,5.59,0,0,0-1.54,3,6.74,6.74,0,0,0,.67,4.19,9.72,9.72,0,0,0,3.16,3.22c2.1,1.38,4.87,3.11,4.87,3.11s2.46-1.69,4.67-2.9a9.53,9.53,0,0,0,3.41-2.95A6.77,6.77,0,0,0,280.75,77Z" style="fill:#92E3A9"></path></g><g id="freepik--Calendar--inject-338"><rect x="351.04" y="125.05" width="87.66" height="78.43" style="fill:#fafafa"></rect><path d="M438.7,203.48s0-.51,0-1.46,0-2.37,0-4.2c0-3.69,0-9.07,0-15.92,0-13.71-.06-33.29-.11-56.85l.21.2-87.65,0h0l.24-.24c0,28.53,0,55.38,0,78.43l-.21-.22,63.4.11,17.88.06,4.74,0h1.22l.42,0h-1.59l-4.7,0-17.83.05-63.54.11h-.22v-.21c0-23,0-49.9,0-78.43v-.25h.26l87.65,0h.21v.21c-.05,23.62-.08,43.24-.11,57,0,6.83,0,12.2-.05,15.87,0,1.82,0,3.21,0,4.16S438.7,203.48,438.7,203.48Z" style="fill:#263238"></path><path d="M438.7,203.48s0-.51,0-1.46,0-2.37,0-4.2c0-3.68,0-9.07-.06-15.92,0-13.71-.06-33.29-.1-56.85l.2.2-87.65,0h0l.23-.23c0,28.53,0,55.38,0,78.43l-.2-.21,63.4.1,17.89.06,4.73,0h1.22l.42,0h-1.59l-4.7,0-17.83.06-63.54.1h-.21v-.2c0-23,0-49.9,0-78.43v-.24h.25l87.65,0h.2v.2c0,23.62-.08,43.24-.1,57,0,6.84,0,12.21-.05,15.88,0,1.82,0,3.21,0,4.16S438.7,203.48,438.7,203.48Z" style="fill:#263238"></path><path d="M384.65,139c0,.13-4.61.24-10.3.24S364,139.11,364,139s4.61-.23,10.31-.23S384.65,138.85,384.65,139Z" style="fill:#263238"></path><path d="M421.8,144.87c0,.13-12.68.24-28.31.24s-28.32-.11-28.32-.24,12.68-.23,28.32-.23S421.8,144.74,421.8,144.87Z" style="fill:#263238"></path><rect x="364.19" y="154.85" width="3.69" height="3.69" style="fill:#263238"></rect><rect x="373.28" y="154.85" width="3.69" height="3.69" style="fill:#263238"></rect><rect x="382.54" y="154.68" width="3.69" height="3.69" style="fill:#92E3A9"></rect><rect x="391.46" y="154.85" width="3.69" height="3.69" style="fill:#263238"></rect><rect x="400.56" y="154.85" width="3.69" height="3.69" style="fill:#263238"></rect><rect x="409.65" y="154.85" width="3.69" height="3.69" style="fill:#263238"></rect><rect x="418.74" y="154.85" width="3.69" height="3.69" style="fill:#263238"></rect><rect x="364.19" y="162.7" width="3.69" height="3.69" style="fill:#263238"></rect><rect x="373.28" y="162.7" width="3.69" height="3.69" style="fill:#263238"></rect><rect x="382.37" y="162.7" width="3.69" height="3.69" style="fill:#263238"></rect><rect x="391.46" y="162.7" width="3.69" height="3.69" style="fill:#263238"></rect><rect x="400.56" y="162.7" width="3.69" height="3.69" style="fill:#263238"></rect><rect x="409.81" y="162.53" width="3.69" height="3.69" style="fill:#92E3A9"></rect><rect x="418.74" y="162.7" width="3.69" height="3.69" style="fill:#263238"></rect><rect x="364.19" y="170.55" width="3.69" height="3.69" style="fill:#263238"></rect><rect x="373.45" y="170.38" width="3.69" height="3.69" style="fill:#92E3A9"></rect><rect x="382.37" y="170.55" width="3.69" height="3.69" style="fill:#263238"></rect><rect x="391.46" y="170.55" width="3.69" height="3.69" style="fill:#263238"></rect><rect x="400.56" y="170.55" width="3.69" height="3.69" style="fill:#263238"></rect><rect x="409.65" y="170.55" width="3.69" height="3.69" style="fill:#263238"></rect><rect x="418.74" y="170.55" width="3.69" height="3.69" style="fill:#263238"></rect><rect x="364.19" y="178.4" width="3.69" height="3.69" style="fill:#263238"></rect><rect x="373.28" y="178.4" width="3.69" height="3.69" style="fill:#263238"></rect><rect x="382.37" y="178.4" width="3.69" height="3.69" style="fill:#263238"></rect><rect x="391.63" y="178.23" width="3.69" height="3.69" style="fill:#92E3A9"></rect><rect x="400.56" y="178.4" width="3.69" height="3.69" style="fill:#263238"></rect><rect x="409.65" y="178.4" width="3.69" height="3.69" style="fill:#263238"></rect><rect x="418.74" y="178.4" width="3.69" height="3.69" style="fill:#263238"></rect><rect x="364.19" y="186.25" width="3.69" height="3.69" style="fill:#263238"></rect><rect x="373.28" y="186.25" width="3.69" height="3.69" style="fill:#263238"></rect><rect x="382.37" y="186.25" width="3.69" height="3.69" style="fill:#263238"></rect><rect x="391.46" y="186.25" width="3.69" height="3.69" style="fill:#263238"></rect><rect x="400.56" y="186.25" width="3.69" height="3.69" style="fill:#263238"></rect><rect x="409.81" y="186.09" width="3.69" height="3.69" style="fill:#92E3A9"></rect><rect x="418.74" y="186.25" width="3.69" height="3.69" style="fill:#263238"></rect></g><g id="freepik--Character--inject-338"><path d="M162.81,226.9l-7.44-3.1c-4.07.64-12.34-4.12-13.33-5.59a2.66,2.66,0,0,0-2.4-1.29s-9.42.25-10.31-2.53l.42-1.15s10,0,10.19,0,.71-.91-.54-1.89-5.7-2.37-5.7-2.37a15,15,0,0,1-5.23-.6,3.3,3.3,0,0,1-1.49-2.14l-.14-.75s7.74-.3,9.31.26,5.09,1.56,5.09,1.56l-.14-.66-7.4-3.77s-7.13-1.49-7.86-3.45.48-1.51.48-1.51,7.61.84,9.33,1.48c.7.26,7.11,3.39,7.11,3.39l.09-1.24-5.78-3.36s-6.52-1.77-6.21-3.88l.68-1.46s8.47,2.54,8.91,2.57,8.72,5.71,8.72,5.71l1,.06-.89-1.76a5.9,5.9,0,0,1-1.23-3.8c-.09-2.65,1.19-3.14,1.19-3.14l3.33,4.94s4.22,5.1,5,6.7a39.28,39.28,0,0,1,2,7.05c0,.67,2.49,2.09,2.49,2.09l4.47.81Z" style="fill:#ffbf9d"></path><path d="M152,205.13c.08,0-.37.87-.7,2.32a11.11,11.11,0,0,0,3,10.61c1,1.05,1.87,1.52,1.82,1.59a5.73,5.73,0,0,1-2.06-1.33,10.62,10.62,0,0,1-3.15-11A5.81,5.81,0,0,1,152,205.13Z" style="fill:#ff9a6c"></path><path d="M234.87,190.36s-5.65.45-15.39,11.19c-8,8.81-26.3,24.19-26.3,24.19l-30-14.58-7,15.13s16.07,10.51,25.38,16.07c10.33,6.17,15.89,7.57,26.18-.77,12.25-9.93,21.12-27.35,21.12-27.35Z" style="fill:#e0e0e0"></path><path d="M194.49,233c-.15,0,0-1.68-.32-3.69s-1-3.52-.91-3.59a6.78,6.78,0,0,1,1.42,3.51A6.61,6.61,0,0,1,194.49,233Z" style="fill:#263238"></path><polygon points="190.15 111.86 189.68 116.82 193.55 123.82 181.62 129.84 179.01 122.38 172.77 108.5 174.95 108.43 181.93 104.55 187.17 107.58 190.15 111.86" style="fill:#ffbf9d"></polygon><path d="M174.36,124.45l-2.09-2.91c.11-.09,10.94-9.09,9.48-17-.57-3.12-2.08-4.93-4.63-5.52-2-.46-6.76.14-6.78.15l-.64-3.66c.11,0,13.6-2.83,15.59,8.06C187.17,113.82,174.88,124,174.36,124.45Z" style="fill:#e0e0e0"></path><path d="M174.36,124.45s.2-.21.63-.61,1-1,1.79-1.76a39.67,39.67,0,0,0,5.64-7.26,22.22,22.22,0,0,0,2.44-5.81,12.43,12.43,0,0,0-.26-7.1,9,9,0,0,0-5.3-5.5,17.78,17.78,0,0,0-8.44-.83l-1.09.17.19-.29c.21,1.24.43,2.46.64,3.65l-.32-.2a34.74,34.74,0,0,1,5.8-.29,5.86,5.86,0,0,1,4.75,2.69,9.3,9.3,0,0,1,1.26,5,12.32,12.32,0,0,1-1.15,4.61,27.37,27.37,0,0,1-4.47,6.66,39.43,39.43,0,0,1-4.13,4l0-.14c.62.92,1.12,1.64,1.48,2.17l.39.59a1.21,1.21,0,0,1,.13.21,8.35,8.35,0,0,1-.56-.7l-1.61-2.15-.06-.07.08-.07a40.43,40.43,0,0,0,4-4.09,26.65,26.65,0,0,0,4.33-6.61,11.94,11.94,0,0,0,1.09-4.45,8.89,8.89,0,0,0-1.22-4.74,5.37,5.37,0,0,0-4.37-2.45,23.87,23.87,0,0,0-2.8,0l-1.43.11-.72.07-.36,0-.19,0h-.14a1.85,1.85,0,1,1-.06-.23l-.26,0c-.21-1.19-.43-2.41-.65-3.65l0-.25.23,0c.42-.09.78-.13,1.17-.18a18,18,0,0,1,8.69.87,9.48,9.48,0,0,1,5.57,5.81,12.88,12.88,0,0,1,.22,7.36,22.58,22.58,0,0,1-2.54,5.9,37.42,37.42,0,0,1-5.82,7.21c-.78.77-1.42,1.33-1.86,1.7A4,4,0,0,1,174.36,124.45Z" style="fill:#263238"></path><path d="M130.2,97.21l3.38,8.23,10.74,7.88-2.43-15,29.59-4.06,3.19,32.4a59.37,59.37,0,0,1-25.52,3.5l-18-21.62-7.9,2.43Z" style="fill:#e0e0e0"></path><path d="M174.79,102.17s-1.18-3.5,2.07-3.1,4.41,2.45,4.15,3a9.76,9.76,0,0,1-1.56,1.69,22.38,22.38,0,0,1,2.86,3.09,2.26,2.26,0,0,1-.17,1.75s1,2.72-.75,2.71a3.42,3.42,0,0,1-2.45-.81s1.4,1.62,1.16,2.45a1.44,1.44,0,0,1-2.18.65c-.39-.24-3.23-3.21-3.23-3.21l-1.83-2.16s-.82-2,.86-2.32C173.72,105.9,172.57,102.78,174.79,102.17Z" style="fill:#ffbf9d"></path><path d="M174.79,102.17a2.81,2.81,0,0,0-.89.67,3.45,3.45,0,0,0,0,3l.06.16-.17,0a1.11,1.11,0,0,0-.87.73,2.36,2.36,0,0,0,.14,1.37l0-.05c.56.65,1.15,1.34,1.79,2.07s1.39,1.43,2.15,2.18a9.54,9.54,0,0,0,1.17,1.07,1.36,1.36,0,0,0,1.38,0,.91.91,0,0,0,.38-.55,1.46,1.46,0,0,0-.16-.72,6.81,6.81,0,0,0-1-1.46l.38-.34a3.25,3.25,0,0,0,1.92.7,1.42,1.42,0,0,0,.77-.08.77.77,0,0,0,.32-.59,4,4,0,0,0-.23-1.67l0-.11,0-.1a2.18,2.18,0,0,0,.23-1.35,3.63,3.63,0,0,0-.82-1.14c-.67-.74-1.37-1.42-2-2l-.19-.18.19-.17c.34-.3.68-.62,1-.93s.66-.65.54-.91a3.14,3.14,0,0,0-1.46-1.67,6.22,6.22,0,0,0-1.94-.75,3.82,3.82,0,0,0-1.74,0,1.29,1.29,0,0,0-.9.93,2.9,2.9,0,0,0-.09,1.06c0,.58.14.89.11.9a2.13,2.13,0,0,1-.26-.89,2.86,2.86,0,0,1,0-1.12,1.53,1.53,0,0,1,1-1.14,3.88,3.88,0,0,1,1.89,0,6.23,6.23,0,0,1,2.07.74,3.5,3.5,0,0,1,1.69,1.9.89.89,0,0,1,0,.43,1.15,1.15,0,0,1-.19.35,5.72,5.72,0,0,1-.45.53c-.31.34-.64.66-1,1v-.34c.69.63,1.4,1.31,2.09,2,.17.19.35.39.51.6a2,2,0,0,1,.43.75,2.54,2.54,0,0,1-.26,1.72v-.2a4.33,4.33,0,0,1,.27,1.91,1.28,1.28,0,0,1-.57,1,2,2,0,0,1-1.07.15,3.78,3.78,0,0,1-2.26-.87l.38-.34a7.2,7.2,0,0,1,1,1.58,1.78,1.78,0,0,1,.19,1,1.38,1.38,0,0,1-.59.87,1.83,1.83,0,0,1-1.89,0,9.71,9.71,0,0,1-1.27-1.15c-.76-.78-1.47-1.51-2.14-2.24l-1.76-2.1,0,0v0a2.59,2.59,0,0,1-.11-1.62,1.41,1.41,0,0,1,1.12-.93l-.11.2a3.53,3.53,0,0,1,.19-3.21A1.56,1.56,0,0,1,174.79,102.17Z" style="fill:#ff9a6c"></path><path d="M179.33,111a25,25,0,0,1-2.77-2.64c-1.5-1.48-3-2.34-2.9-2.47a7.09,7.09,0,0,1,3.25,2.1A10.34,10.34,0,0,1,179.33,111Z" style="fill:#ff9a6c"></path><path d="M181.92,108.55c-.06,0-.41-.39-.94-1.09a26.48,26.48,0,0,0-2.19-2.64,14.46,14.46,0,0,0-4-2.68,2.86,2.86,0,0,1,1.42.32,8.61,8.61,0,0,1,2.92,2,15.68,15.68,0,0,1,2.12,2.79C181.74,108,182,108.51,181.92,108.55Z" style="fill:#ff9a6c"></path><path d="M185.58,113.86a6.43,6.43,0,0,1-1.65-4.24v-2.81l-1.29-.42s-1.93,3.41-4.78-.54c0,0,2.14-3.47,3.88-3.64s5.76,1.08,6.28,2.61,2.84,5.67,1.95,7.83" style="fill:#ffbf9d"></path><path d="M190,112.65a6.57,6.57,0,0,0,.1-1.37,12.86,12.86,0,0,0-1-3.61c-.33-.74-.68-1.55-1.06-2.41-.21-.92-1.09-1.43-2-1.87a10.9,10.9,0,0,0-3.13-.89,2.91,2.91,0,0,0-1.59.13,5.39,5.39,0,0,0-1.36,1.06,15.86,15.86,0,0,0-1.78,2.29v-.28a4,4,0,0,0,2.25,1.79,2.24,2.24,0,0,0,2.13-1.21l.1-.15.16.05,1.28.43.15,0v.15c0,1.12,0,2.14,0,3.07a7.12,7.12,0,0,0,.47,2.25,8.3,8.3,0,0,0,1,1.73s-.16-.1-.4-.35a5.13,5.13,0,0,1-.83-1.29,7,7,0,0,1-.58-2.32c0-.93,0-2-.05-3.09l.14.2-1.29-.4.26-.11a3.34,3.34,0,0,1-1,1.1,2.16,2.16,0,0,1-1.56.37,4.47,4.47,0,0,1-2.6-2l-.1-.14.09-.14a16,16,0,0,1,1.85-2.39,5.78,5.78,0,0,1,1.51-1.16,3.29,3.29,0,0,1,1.87-.17,11.09,11.09,0,0,1,3.27,1,6,6,0,0,1,1.37.84,3.5,3.5,0,0,1,.55.6c.06.12.12.26.18.37l.12.33c.35.87.71,1.68,1,2.44a11.46,11.46,0,0,1,.91,3.73,4.08,4.08,0,0,1-.14,1C190,112.55,190,112.66,190,112.65Z" style="fill:#ff9a6c"></path><path d="M128.73,105.58c-2.18,3.71-5,6.11-6.29,5.35s-.59-4.39,1.58-8.11,5.11-6.66,6.18-5.61C130.91,97.91,130.9,101.86,128.73,105.58Z" style="fill:#e0e0e0"></path><path d="M128.73,105.58s.21-.45.55-1.27a15,15,0,0,0,1-3.58,8.84,8.84,0,0,0,.05-2.53c-.08-.44-.19-.92-.57-1a1.84,1.84,0,0,0-1.25.45,18.06,18.06,0,0,0-4.26,5.18,15,15,0,0,0-2.27,6.28,2.36,2.36,0,0,0,.27,1.35.93.93,0,0,0,1.07.33,5.59,5.59,0,0,0,2.12-1.31,17.45,17.45,0,0,0,2.44-2.82,10.34,10.34,0,0,1,.82-1.11,1.28,1.28,0,0,1-.15.33c-.1.21-.28.51-.51.89a16.06,16.06,0,0,1-2.37,3,5.79,5.79,0,0,1-2.25,1.44,1.82,1.82,0,0,1-.81,0,1.27,1.27,0,0,1-.7-.5,2.69,2.69,0,0,1-.36-1.61,10.49,10.49,0,0,1,.73-3.28,20.25,20.25,0,0,1,1.56-3.22,18,18,0,0,1,4.42-5.3,2.21,2.21,0,0,1,1.59-.5.93.93,0,0,1,.67.57,2.7,2.7,0,0,1,.2.75,9.18,9.18,0,0,1-.11,2.65,13.4,13.4,0,0,1-1.19,3.6,9.25,9.25,0,0,1-.51.9C128.81,105.49,128.74,105.59,128.73,105.58Z" style="fill:#263238"></path><ellipse cx="156.74" cy="96.38" rx="14.84" ry="2.99" transform="translate(-11.81 22.57) rotate(-7.94)" style="fill:#e0e0e0"></ellipse><path d="M171.44,94.33s.11.25-.14.62a4.12,4.12,0,0,1-1.44,1.14,27.9,27.9,0,0,1-6.32,2.23,68.57,68.57,0,0,1-9.8,1.63,52.82,52.82,0,0,1-5.87.25,25.46,25.46,0,0,1-3.11-.23,9.14,9.14,0,0,1-1.59-.37,2.82,2.82,0,0,1-.77-.36,1.16,1.16,0,0,1-.59-.78,1.21,1.21,0,0,1,.35-.91,3.78,3.78,0,0,1,.65-.56,8.59,8.59,0,0,1,1.42-.78,24.77,24.77,0,0,1,2.93-1.08,53.61,53.61,0,0,1,5.72-1.37,69.64,69.64,0,0,1,9.88-1.1,27.37,27.37,0,0,1,6.68.41,4.1,4.1,0,0,1,1.69.7c.35.29.32.57.31.56a1,1,0,0,0-.37-.48,4.36,4.36,0,0,0-1.67-.6,30.05,30.05,0,0,0-6.63-.26,73.27,73.27,0,0,0-9.81,1.2,57.32,57.32,0,0,0-5.66,1.38,24.3,24.3,0,0,0-2.87,1.07,8,8,0,0,0-1.35.74c-.41.27-.84.68-.8,1s.58.6,1.05.76a9.33,9.33,0,0,0,1.5.34,26.45,26.45,0,0,0,3,.24,55.06,55.06,0,0,0,5.83-.23A71.63,71.63,0,0,0,163.47,98a29.93,29.93,0,0,0,6.31-2.06,4.33,4.33,0,0,0,1.44-1A1,1,0,0,0,171.44,94.33Z" style="fill:#263238"></path><path d="M152,126.87a14.4,14.4,0,0,0,.62-2.35,8.77,8.77,0,0,0-1.39-5.53,15.51,15.51,0,0,0-4.17-4.1,19.7,19.7,0,0,1-2-1.42,8.26,8.26,0,0,1,2.22,1.11,13.89,13.89,0,0,1,4.4,4.13,8.41,8.41,0,0,1,1.32,5.86,5.51,5.51,0,0,1-.59,1.75C152.17,126.71,152,126.89,152,126.87Z" style="fill:#263238"></path><path d="M126.18,101.83c-.28.11-.51.61-.24.75a.42.42,0,0,0,.57-.44l-.33-.31" style="fill:#263238"></path><path d="M128,103.28c-.28.12-.51.62-.24.76a.42.42,0,0,0,.57-.44l-.33-.32" style="fill:#263238"></path><path d="M124.68,104c-.28.11-.51.61-.24.75a.42.42,0,0,0,.57-.44l-.33-.31" style="fill:#263238"></path><path d="M126.45,105.48c-.27.11-.5.61-.24.75a.42.42,0,0,0,.58-.44l-.34-.31" style="fill:#263238"></path><path d="M128.16,100.78c-.27.11-.5.61-.24.75a.43.43,0,0,0,.58-.44l-.34-.31" style="fill:#263238"></path><path d="M124.31,106.9c-.27.11-.5.61-.24.75a.42.42,0,0,0,.58-.44l-.34-.31" style="fill:#263238"></path><path d="M248.1,187.12s-37.46-28-38.68-31.17-16.81-33.85-16.81-33.85l-13.33,6.81s7.41,25,12.28,34.78,34.71,40.47,34.71,40.47Z" style="fill:#e0e0e0"></path><path d="M211.58,166.2a21.81,21.81,0,0,0-5.87,1.34,21.58,21.58,0,0,0-5,3.33,4.48,4.48,0,0,1,1.14-1.41,12.59,12.59,0,0,1,3.66-2.4,12.39,12.39,0,0,1,4.27-1A4.49,4.49,0,0,1,211.58,166.2Z" style="fill:#263238"></path><path d="M291.73,170.28l3.51,2.23,3.47-5.09.57-3.4,4.46-6a26.71,26.71,0,0,1,.65,3.15l4.31,5.32L311,177.58l4.31,5.39-11.2,5.94L300.41,182a23.79,23.79,0,0,1-5.9-3c-2.17-1.75-5.46-8.8-5.46-8.8A2.63,2.63,0,0,1,291.73,170.28Z" style="fill:#ffbf9d"></path><path d="M301.34,170.87a1.12,1.12,0,0,0,.09-1.18l-2.81-5.49-8.11-14.7a1.13,1.13,0,0,0-1.9-.13l-5.49,7.34A1.14,1.14,0,0,0,283,158l11.22,20a1.15,1.15,0,0,0,1.92.11Z" style="fill:#e0e0e0"></path><path d="M300.41,170.54a1,1,0,0,0,.08-1.08l-2.63-5.16-7.51-13.85a1,1,0,0,0-1.74-.12L283.53,157a1,1,0,0,0-.07,1.12l10.73,18.76a1,1,0,0,0,1.74.1Z" style="fill:#263238"></path><path d="M299.28,164s-.58.33-2.08,1.3c-1.79,1.16-2.48.24-2.48.24h0a1.41,1.41,0,0,1,.39-1.95l3.6-2.39-.22-.82s-2,.67-3.49,1c-3.14.64-2.51-2.3-2.51-2.3l3.52-1.21-2.38-2.29a2,2,0,0,1-.28-3l7.95,4.21s2.15.41,2.44,1.21a26.71,26.71,0,0,1,.65,3.15Z" style="fill:#ffbf9d"></path><path d="M295.54,165.9a3.18,3.18,0,0,0,1.55-.33,16.85,16.85,0,0,0,3.32-1.84l.45-.32-.3,0c.92,1,1.63,1.92,2.22,2.55s1,1,1,.94a6.43,6.43,0,0,0-.8-1.13,28.07,28.07,0,0,0-2.13-2.68l-.13-.14-.17.12-.44.31a24.82,24.82,0,0,1-3.19,1.92C296.11,165.69,295.53,165.83,295.54,165.9Z" style="fill:#ff9a6c"></path><path d="M298.71,161.4c.05,0,.3-.2.78-.48a3.85,3.85,0,0,1,2-.56,3.91,3.91,0,0,1,2,.58c.47.29.72.54.77.49s-.12-.37-.58-.75a3.41,3.41,0,0,0-2.17-.78,3.53,3.53,0,0,0-2.19.75C298.83,161,298.67,161.37,298.71,161.4Z" style="fill:#ff9a6c"></path><path d="M293,158.9c.06.12,1.83-.67,4.13-1.24s4.24-.71,4.23-.85A14.3,14.3,0,0,0,293,158.9Z" style="fill:#ff9a6c"></path><path d="M302.34,179.6c.07,0-.23-.63-.48-1.65a8.47,8.47,0,0,1,1.82-7.6c.68-.8,1.22-1.19,1.18-1.25a3.81,3.81,0,0,0-1.42,1,7.84,7.84,0,0,0-1.89,7.91A3.57,3.57,0,0,0,302.34,179.6Z" style="fill:#ff9a6c"></path><path d="M294.88,190.6l-.57-.92c3.49,1,10.55,1.69,12.17,5.21l2.84,4.86L303.6,189l14.49-7.6s11.11,16.84,16.19,26c3.93,7,7.43,22.14.52,26.72-6.55,3.65-16.73,2.46-23.4-5.23L301.18,218Z" style="fill:#e0e0e0"></path><path d="M318.09,181.41a1.23,1.23,0,0,0-.29.12l-.81.38-3,1.51-10.48,5.4-.19.1.1.19,4.76,9c1.73,3.22,3.41,6.27,4.84,9.1s2.77,5.36,4.08,7.38a28.73,28.73,0,0,0,3.52,4.48c.46.49.85.84,1.11,1.07a3,3,0,0,0,.42.35s-.51-.55-1.4-1.54a32.84,32.84,0,0,1-3.37-4.53c-1.27-2-2.56-4.57-4-7.4s-3.08-5.91-4.81-9.13l-4.78-8.94-.09.29,10.4-5.55,3-1.62.77-.44C318,181.48,318.1,181.42,318.09,181.41Z" style="fill:#263238"></path><path d="M258.09,110.27a5.55,5.55,0,0,0-4.57-1.86,3.17,3.17,0,0,1-2-.15,4.41,4.41,0,0,1-.92-1.16,2.81,2.81,0,0,0-4-.28,3.47,3.47,0,0,1-.83.75c-1.37.65-2.74-1.93-4.11-1.28a3.17,3.17,0,0,1,1.44,1.24,1.44,1.44,0,0,1-.24,1.77c-1.3,1-3.25-1.51-4.69-.65-.77.46-.93,1.73-1.82,1.91a3.34,3.34,0,0,1-1-.12,2.31,2.31,0,0,0-2.54,1.88c-.14,1,.31,2.22-.47,2.86a2.15,2.15,0,0,1-1.78.17A6,6,0,0,0,231,118a3.62,3.62,0,0,0-1.43,4.81,8,8,0,0,0-2.18,2,2.7,2.7,0,0,0-.14,2.84,2.34,2.34,0,0,1,.36.58,1.39,1.39,0,0,1,0,.73,12.4,12.4,0,0,0-.69,2.76c0,1,.65,2,1.6,2,.22,0,.47-.08.65.05a.7.7,0,0,1,.21.44,6.37,6.37,0,0,1-.23,2,2.72,2.72,0,0,0,.23,2,1.16,1.16,0,0,0,1.75.29c-.32,1-.64,2.09-1,3.14a1.93,1.93,0,0,0,.09,1.86c.57.63,1.68.2,2.16-.5s.65-1.59,1.15-2.28a4.5,4.5,0,0,0,.61-.84c.12-.25.17-.55.38-.72.45-.33,1.08.29,1,.84a3,3,0,0,1-.91,1.36,1.42,1.42,0,0,0-.41,1.5c.13.23.37.39.49.63.41.83-.8,1.56-1,2.47a2.21,2.21,0,0,0,.8,1.8c.56.61,1.68,1.13,2.08.4a7.21,7.21,0,0,0,.22-.83,2.09,2.09,0,0,1,.69-.73,4.38,4.38,0,0,0,1.37-2.08c-.74.84-1.53,2-1.07,3a4.34,4.34,0,0,0,.88,1.08c.6.69,1,1.57,1.56,2.26a2.14,2.14,0,0,0,2.42.78,2.05,2.05,0,0,0,3.35,2.19,1.89,1.89,0,0,1,.59-.47,1.47,1.47,0,0,1,.8.05,4.46,4.46,0,0,0,4.38-1.54l-.81-.32a10.44,10.44,0,0,0,4.67-1.16c1.38-.86,2.32-2.64,1.69-4.13-.28-.65-.82-1.33-.54-2a1.74,1.74,0,0,1,1.18-.76l5.81-1.77a5.47,5.47,0,0,0,2.58-1.34,1.86,1.86,0,0,0,0-2.62,5.26,5.26,0,0,1,2.07-2.06c1-.53,2.1-.74,3.1-1.23a3,3,0,0,0,1.91-2.51c0-1.11-1.52-2-2.31-1.26.22-1.66,3.2-1.64,3.52-3.28.27-1.34-1.42-2.11-2.27-3.18.21-.46.7-.74.91-1.19.45-1-.51-2-1.44-2.46s-2.07-1-2.26-2,.76-2.21.25-3.15a1.19,1.19,0,0,0-1.55-.46c-.68-2-4.37-.66-5.34-2.49a.72.72,0,0,1-.11-.47.89.89,0,0,1,.2-.37,8.39,8.39,0,0,1,1.65-1.15,1.64,1.64,0,0,0,.81-1.7c-.21-.64-1.4-.67-1.42,0a1.48,1.48,0,0,0-2.29.47,1.58,1.58,0,0,0-2-.27,4.58,4.58,0,0,0-1.49,1.57" style="fill:#263238"></path><path d="M248.07,131.12c.78-2.72,3-4.82,5.32-6.38a7.26,7.26,0,0,1,3.24-1.36,3.05,3.05,0,0,1,3,1.46l-.29,2c0,3.15-2.55,5.63-3.9,8.48-.59,1.24-1.1,2.74-2.39,3.2a2.94,2.94,0,0,1-2.1-.16C248.36,137.22,247.29,133.84,248.07,131.12Z" style="fill:#92E3A9"></path><path d="M246.82,145.59a6.33,6.33,0,0,1,1.22-8c-1-1.54-.44-3.73.84-5.07a12.4,12.4,0,0,1,4.84-2.66,8.5,8.5,0,0,1,10.38-5.38c2.46-3,7.17-3.17,10.83-1.78a9.89,9.89,0,0,0,2.73.83,16.42,16.42,0,0,0,2.1-.11c3.85-.21,7.41,2.78,8.6,6.45a7.27,7.27,0,0,0,.68,1.71,9.26,9.26,0,0,0,1.76,1.66,6.12,6.12,0,0,1,2,4.69c-.06,1.48-.65,3-.14,4.41a18.51,18.51,0,0,1,1,2c.54,2.08-1.88,4-1.63,6.12.05.44.21.86.29,1.29a3.69,3.69,0,0,1-.44,2.6,5.47,5.47,0,0,0-1,1.82,6.53,6.53,0,0,0,.18,1.57c.16,1.28-2.95,5.91-4.1,6.51l-32.54-2.36a6.1,6.1,0,0,1-4.28-5.61,2.18,2.18,0,0,0-.2-1.22,2.57,2.57,0,0,0-.84-.65c-2-1.3-2-4.19-1.61-6.54a2.82,2.82,0,0,0,.06-1A3.58,3.58,0,0,0,246.82,145.59Z" style="fill:#263238"></path><path d="M256.13,146.4A17.49,17.49,0,0,1,266.6,132a21.46,21.46,0,0,1,8.47-1.33,13.21,13.21,0,0,1,7.54,2.23c1.76.57,7.84,7.12,7.65,13.67-.21,7.28-.76,16.16-2.11,21.48C285.42,178.73,277,179.34,277,179.34s-.31,8.19-.31,8.19l-12.53,7-7.19-5-3-2.1Z" style="fill:#ffbf9d"></path><path d="M272.87,164.9a2.1,2.1,0,0,1,.79-1.29,2.18,2.18,0,0,1,2.65-.06,2.43,2.43,0,0,1,.66,2.58h0c-.47.61-.83,1.21-1.59,1.24H275a2.38,2.38,0,0,1-1.59-.69A2.16,2.16,0,0,1,272.87,164.9Z" style="fill:#ff9a6c"></path><path d="M284.24,155.11a1.39,1.39,0,0,1-1.47,1.28,1.34,1.34,0,0,1-1.32-1.39,1.4,1.4,0,0,1,1.47-1.28A1.34,1.34,0,0,1,284.24,155.11Z" style="fill:#263238"></path><path d="M287.38,150.48c-.19.16-1.17-.71-2.67-.85s-2.67.52-2.81.32.13-.4.64-.71a3.88,3.88,0,0,1,2.27-.48,3.7,3.7,0,0,1,2.11.91C287.35,150.06,287.47,150.4,287.38,150.48Z" style="fill:#263238"></path><path d="M277.52,161.51a9.94,9.94,0,0,1,2.48-.22c.38,0,.75,0,.84-.3a2,2,0,0,0-.15-1.16c-.28-1-.56-2-.86-3-1.19-4.29-2-7.81-1.84-7.86s1.27,3.4,2.46,7.7c.29,1,.56,2.06.82,3a2.24,2.24,0,0,1,.06,1.52,1,1,0,0,1-.68.5,2.56,2.56,0,0,1-.66,0A10.42,10.42,0,0,1,277.52,161.51Z" style="fill:#263238"></path><path d="M277,179.34a27.83,27.83,0,0,1-14.24-5.22s3.17,8,14.13,8Z" style="fill:#ff9a6c"></path><path d="M287.61,145.53c-.29.34-1.41,0-2.76,0s-2.5.24-2.76-.12c-.12-.17.06-.52.56-.84a4.27,4.27,0,0,1,4.45.11C287.58,145,287.74,145.36,287.61,145.53Z" style="fill:#263238"></path><path d="M267.26,153.86a1.39,1.39,0,0,0,1.27,1.48,1.33,1.33,0,0,0,1.5-1.18,1.39,1.39,0,0,0-1.26-1.48A1.33,1.33,0,0,0,267.26,153.86Z" style="fill:#263238"></path><path d="M266.82,149.18c.16.19,1.26-.54,2.77-.45s2.56.9,2.73.72-.07-.41-.53-.79a3.83,3.83,0,0,0-2.18-.8,3.67,3.67,0,0,0-2.22.58C266.91,148.77,266.74,149.09,266.82,149.18Z" style="fill:#263238"></path><path d="M265.72,144.53c.28.36,1.46.07,2.85.13s2.57.37,2.86,0c.13-.16,0-.52-.54-.87a4.58,4.58,0,0,0-4.6-.12C265.78,144,265.6,144.36,265.72,144.53Z" style="fill:#263238"></path><path d="M256.94,156.85c.07-.81-.69-2.8-1.48-3-2.1-.53-6-.71-6.5,4.7-.73,7.4,6.85,6.61,6.89,6.4S256.68,159.65,256.94,156.85Z" style="fill:#ffbf9d"></path><path d="M254.07,162.05s-.14.07-.36.15a1.29,1.29,0,0,1-1-.07,3.21,3.21,0,0,1-1.19-3,4.32,4.32,0,0,1,.54-1.81,1.53,1.53,0,0,1,1.07-.9.68.68,0,0,1,.73.43c.07.22,0,.36.05.38s.17-.11.14-.42a.78.78,0,0,0-.24-.49,1,1,0,0,0-.7-.26,1.83,1.83,0,0,0-1.46,1,4.39,4.39,0,0,0-.65,2c-.1,1.5.53,3,1.57,3.38a1.34,1.34,0,0,0,1.19-.08C254,162.22,254.1,162.06,254.07,162.05Z" style="fill:#ff9a6c"></path><path d="M291.89,146.79a4.31,4.31,0,0,1-2-4.18c-1,.2-1.91-1.17-2.41-2.08s-1.17-1.41-1-2.44a1.15,1.15,0,0,0,0-.61,1.29,1.29,0,0,0-.77-.54,5,5,0,0,1-2.95-3.75,10.47,10.47,0,0,1-5.15.37,4,4,0,0,1-6.76-.91,3.62,3.62,0,0,1-2.57,1.55,10.7,10.7,0,0,1-3.09-.11,4.25,4.25,0,0,1-3.23,4.55.74.74,0,0,0-.69,1.18,3.35,3.35,0,0,1-2.63,4.05,2.51,2.51,0,0,1-.58,3.89c-.28.14-.65.3-.64.62a.68.68,0,0,0,.13.33,4.87,4.87,0,0,1,.95,2.55,1.81,1.81,0,0,1-1.65,1.85,2.37,2.37,0,0,1,.79,1.71c-.05.64-.76,1.24-1.34,1a42.16,42.16,0,0,1-4-1.42c-1.83-3,1.09-5.94,1.62-9.45a23,23,0,0,1,4.12-9.71,17,17,0,0,1,2.95-3.33,22.55,22.55,0,0,1,4.35-2.62,20.62,20.62,0,0,1,6.2-2.29c4.08-.58,8.1,1.25,11.67,3.32A17.24,17.24,0,0,1,287,133a15.85,15.85,0,0,1,3,4.73,19.75,19.75,0,0,1,2,7.83" style="fill:#263238"></path><path d="M293.58,144.34a2.7,2.7,0,0,0-.32-.84c-.14-.26-.34-.56-.51-.95a3.55,3.55,0,0,1-.29-1.42,10.62,10.62,0,0,1,.2-1.83,8.67,8.67,0,0,0,.14-2.2,6.2,6.2,0,0,0-.77-2.43,6.54,6.54,0,0,0-.81-1.13,10.18,10.18,0,0,0-1.09-1,4.59,4.59,0,0,1-1-1.07,6.1,6.1,0,0,1-.58-1.46,9.92,9.92,0,0,0-4.21-5.49,9.45,9.45,0,0,0-1.72-.84,7.85,7.85,0,0,0-2.93-.4c-.34,0-.67.06-1,.09a4.75,4.75,0,0,1-2-.18c-.66-.19-1.28-.49-1.95-.72a13.16,13.16,0,0,0-2.07-.56,14.12,14.12,0,0,0-2.17-.21,11.08,11.08,0,0,0-2.21.2,7.4,7.4,0,0,0-3.95,2.13l-.3.34.12,0a8.34,8.34,0,0,0-6.5.72,8.25,8.25,0,0,0-4,4.74l.06-.07a24.33,24.33,0,0,0-2.72,1.14,7.93,7.93,0,0,0-2.29,1.71,5,5,0,0,0-1.19,2.47,3.46,3.46,0,0,0,.48,2.56l0-.12a6.13,6.13,0,0,0-2,3.65,6.29,6.29,0,0,0,.44,3.75,5.35,5.35,0,0,0,.43.78c.16.24.32.46.45.7a1.72,1.72,0,0,1,.2.75,4.91,4.91,0,0,1-.09.77,12.18,12.18,0,0,0-.18,2.82,5.83,5.83,0,0,0,.54,2.2,3.6,3.6,0,0,0,1,1.31c.36.29.69.41.87.57a1.55,1.55,0,0,1,.25.25.82.82,0,0,0-.23-.27c-.18-.17-.51-.31-.85-.59a3.7,3.7,0,0,1-1-1.3,6,6,0,0,1-.5-2.18,12.54,12.54,0,0,1,.19-2.79,4,4,0,0,0,.1-.79,1.69,1.69,0,0,0-.21-.81c-.13-.25-.3-.48-.45-.72a6.93,6.93,0,0,1-.41-.76,6.16,6.16,0,0,1-.41-3.66,6,6,0,0,1,2-3.54l.06-.05,0-.07a3.35,3.35,0,0,1-.44-2.43,4.87,4.87,0,0,1,1.15-2.37,7.57,7.57,0,0,1,2.24-1.65,24.92,24.92,0,0,1,2.69-1.13h.05l0-.05a8.42,8.42,0,0,1,10.25-5.32l.07,0,.05-.06.3-.33a7.12,7.12,0,0,1,3.83-2.06,10.47,10.47,0,0,1,2.16-.2,12.6,12.6,0,0,1,2.13.21,11.46,11.46,0,0,1,2,.55c.66.22,1.29.52,2,.72a5,5,0,0,0,1,.2,5.87,5.87,0,0,0,1,0l1-.09a8,8,0,0,1,1,0,7.77,7.77,0,0,1,1.87.39,8.45,8.45,0,0,1,1.69.8,9.87,9.87,0,0,1,4.15,5.38,6,6,0,0,0,.6,1.49,4.57,4.57,0,0,0,1.08,1.11,9.12,9.12,0,0,1,1.08,1,6.35,6.35,0,0,1,.8,1.09,6,6,0,0,1,.76,2.37,8,8,0,0,1-.12,2.17,10.58,10.58,0,0,0-.18,1.85,3.49,3.49,0,0,0,.32,1.45c.18.39.39.69.53.95a4.07,4.07,0,0,1,.28.59A1.63,1.63,0,0,1,293.58,144.34Z" style="fill:#455a64"></path><path d="M267.73,123.15s.2-.09.58-.24a5.06,5.06,0,0,1,1.65-.33,4.71,4.71,0,0,1,2.41.58,4.79,4.79,0,0,1,2,2.2,4.28,4.28,0,0,1,.3.87.93.93,0,0,1-.13.78l-.2.23.31,0a3.07,3.07,0,0,1,2.26.47,3,3,0,0,1,1.14,1.49,3.3,3.3,0,0,1,.18,1.24,3.89,3.89,0,0,0,0,.46s0,0,0-.11a1.51,1.51,0,0,0,.07-.34,3,3,0,0,0-.12-1.3,3,3,0,0,0-1.16-1.59,3.25,3.25,0,0,0-2.41-.54l.1.18a1.18,1.18,0,0,0,.18-1,4.88,4.88,0,0,0-2.45-3.21,4.67,4.67,0,0,0-2.51-.55,4.75,4.75,0,0,0-1.69.4,4.38,4.38,0,0,0-.41.22C267.77,123.11,267.72,123.14,267.73,123.15Z" style="fill:#455a64"></path><path d="M255,130.58a1.28,1.28,0,0,0,.23.29,5.18,5.18,0,0,0,.79.66,3.68,3.68,0,0,0,1.44.57,2.64,2.64,0,0,0,1.89-.39l-.17,0a3.37,3.37,0,0,1,.19.32c.07.11.15.21.23.32a4.51,4.51,0,0,0,1.75,1.31A4.42,4.42,0,0,0,263,134a3.86,3.86,0,0,0,1.19-.16,1.74,1.74,0,0,0,.41-.17,6.5,6.5,0,0,1-1.59.17,4.52,4.52,0,0,1-1.67-.41,4.27,4.27,0,0,1-1.65-1.26l-.22-.3-.18-.3-.06-.11-.1.07a2.51,2.51,0,0,1-1.74.38,3.52,3.52,0,0,1-1.38-.51C255.33,131,255,130.55,255,130.58Z" style="fill:#455a64"></path><path d="M250.42,137.1s0,.05,0,.14a.91.91,0,0,0,.13.37,2,2,0,0,0,1.12.9,3.82,3.82,0,0,0,2.14,0,10.85,10.85,0,0,0,1.21-.36,2,2,0,0,0,1.1-.84l.06-.11-.18,0a8.45,8.45,0,0,0,2.08,1.51,3.82,3.82,0,0,0,2.06.4,2.78,2.78,0,0,0,1.34-.47,1.58,1.58,0,0,0,.29-.25.44.44,0,0,0,.08-.1s-.14.11-.42.28a2.79,2.79,0,0,1-1.3.38,3.69,3.69,0,0,1-2-.42,8.72,8.72,0,0,1-2-1.5l-.11-.1-.07.14,0,.09a1.82,1.82,0,0,1-1,.75,12.09,12.09,0,0,1-1.18.36,3.7,3.7,0,0,1-2,.09,2,2,0,0,1-1.1-.79A3.67,3.67,0,0,1,250.42,137.1Z" style="fill:#455a64"></path><path d="M244.85,109.94s.13,0,.35.09a1.74,1.74,0,0,1,.78.61,2.4,2.4,0,0,1,.43,1.47,6.67,6.67,0,0,1-.46,2l0,.12H246a4.27,4.27,0,0,1,2.49,1A3.31,3.31,0,0,1,249.7,118a3,3,0,0,1-1.3,2.37l-.27.17.32,0a3.82,3.82,0,0,1,2.7,1.48,3.72,3.72,0,0,1,.74,2.36,4.11,4.11,0,0,1-.39,1.62c-.18.35-.31.52-.29.53l.1-.12a2.77,2.77,0,0,0,.25-.38,3.85,3.85,0,0,0-.26-4.12,4.06,4.06,0,0,0-2.83-1.59l.05.2a3.24,3.24,0,0,0,1.4-2.54,3.34,3.34,0,0,0-.29-1.63,3.77,3.77,0,0,0-1-1.26,4.35,4.35,0,0,0-2.62-1l.08.12a6.44,6.44,0,0,0,.43-2,2.36,2.36,0,0,0-.5-1.53,1.65,1.65,0,0,0-.84-.6,1.16,1.16,0,0,0-.27,0Z" style="fill:#455a64"></path><path d="M230.2,124.81l.11.08c.08,0,.19.12.36.2a5.08,5.08,0,0,0,1.46.47,5.91,5.91,0,0,0,2.35-.07,5.57,5.57,0,0,0,2.64-1.41l-.16,0a4.72,4.72,0,0,0,3.13,2.59A3.59,3.59,0,0,0,244,125l-.19,0a3,3,0,0,0,.78,1.34,4.12,4.12,0,0,0,1.15.8,5.41,5.41,0,0,0,2.23.43,10.24,10.24,0,0,0,1.48-.1,3.82,3.82,0,0,0,.52-.09,2.65,2.65,0,0,0-.53,0,11.71,11.71,0,0,1-1.46.05,5.71,5.71,0,0,1-2.17-.47,3.24,3.24,0,0,1-1.8-2l-.06-.25-.13.23a3.42,3.42,0,0,1-3.64,1.51,4.54,4.54,0,0,1-3-2.46l-.07-.13-.1.1a5.49,5.49,0,0,1-2.54,1.39,5.9,5.9,0,0,1-2.29.12A7,7,0,0,1,230.2,124.81Z" style="fill:#455a64"></path><path d="M236.08,136.34a.32.32,0,0,0,.08.14.75.75,0,0,0,.4.22,3.42,3.42,0,0,0,1.66-.12,4.08,4.08,0,0,0,2-1.41,4.14,4.14,0,0,0,.81-2.89v0l-.17.11a4.81,4.81,0,0,0,2.93.68,5.48,5.48,0,0,0,2.34-.77,6.17,6.17,0,0,0,1.28-1,2.11,2.11,0,0,0,.38-.48,9.15,9.15,0,0,1-1.74,1.38,5.38,5.38,0,0,1-2.28.7,4.68,4.68,0,0,1-2.8-.66l-.18-.12v.25a4,4,0,0,1-.76,2.75,3.9,3.9,0,0,1-1.91,1.38,3.6,3.6,0,0,1-1.59.19A.84.84,0,0,1,236.08,136.34Z" style="fill:#455a64"></path><path d="M261,111.66a6.49,6.49,0,0,1,.13,2.31,5,5,0,0,1-3.36,4.06,5.32,5.32,0,0,1-1.73.29h-.14l0,.14a6.56,6.56,0,0,1,.05,2.41,6.39,6.39,0,0,1-.59,1.85,5,5,0,0,1-.36.63.56.56,0,0,1-.42.27.38.38,0,0,1-.29-.12c0-.06-.05-.1-.06-.1a.19.19,0,0,0,0,.12.41.41,0,0,0,.32.17.64.64,0,0,0,.51-.27,4.16,4.16,0,0,0,.4-.64,6.5,6.5,0,0,0,.62-4.37l-.11.13a5,5,0,0,0,1.81-.29,5.26,5.26,0,0,0,2.52-1.86,5.18,5.18,0,0,0,.93-2.39,5,5,0,0,0-.09-1.73,3.93,3.93,0,0,0-.13-.45C261.05,111.71,261,111.66,261,111.66Z" style="fill:#455a64"></path><path d="M273.06,162.82c.21,0,.37,1.39,1.7,2.27s2.83.55,2.87.75-.31.31-.95.4a3.55,3.55,0,0,1-2.38-.55,3.11,3.11,0,0,1-1.34-1.9C272.84,163.2,273,162.83,273.06,162.82Z" style="fill:#263238"></path><path d="M260.24,454.73v1s-18,7.19-18.17,10.51l35.89-.51-.66-11.54A21.2,21.2,0,0,1,260.24,454.73Z" style="fill:#263238"></path><path d="M278,465.76l-.16-2.77-34.34,1.5s-1.59.7-1.39,1.78Z" style="fill:#455a64"></path><path d="M260.12,455.86c0,.17.89.24,1.76.77s1.34,1.24,1.5,1.17-.11-1.05-1.18-1.67S260.08,455.71,260.12,455.86Z" style="fill:#fff"></path><path d="M256.38,457.42c0,.17.73.45,1.33,1.15s.79,1.47,1,1.46.27-1-.5-1.84S256.38,457.26,256.38,457.42Z" style="fill:#fff"></path><path d="M254.31,461.81c.16,0,.39-.82-.07-1.74s-1.29-1.28-1.36-1.14.44.64.81,1.4S254.14,461.8,254.31,461.81Z" style="fill:#fff"></path><polygon points="272.49 435.2 275.33 462 288.64 454.06 285.35 433.88 272.49 435.2" style="fill:#263238"></polygon><path d="M288.48,453s-8.9,8.72-13.77,3.91l-.89,2.63L270.48,478a2.4,2.4,0,0,0,1.72,2.75,2.59,2.59,0,0,0,2.58-.71c3.37-3.66,15.71-17.17,15.41-18.83l-.49-4.4a32.81,32.81,0,0,0-1-3.29Z" style="fill:#263238"></path><path d="M272.66,480.82l17.39-21.15.09,1c.2,1-.25,1.5-.71,2.22-1.36,2.12-5.25,7-14.58,17.17a2.55,2.55,0,0,1-2.19.8Z" style="fill:#455a64"></path><path d="M277.24,470.39A7.49,7.49,0,0,0,275,468.8a8.19,8.19,0,0,0-2.83-.25c0-.05.26-.26.82-.38a4,4,0,0,1,2.2.17,3.77,3.77,0,0,1,1.75,1.25C277.23,470,277.3,470.36,277.24,470.39Z" style="fill:#fff"></path><path d="M275.81,473.59a22.64,22.64,0,0,0-2.23-.79,23.58,23.58,0,0,0-2.39-.08,2.9,2.9,0,0,1,2.49-.41C275.14,472.57,275.93,473.52,275.81,473.59Z" style="fill:#fff"></path><path d="M280.08,466.2a26.65,26.65,0,0,0-3.36-1.44,25.32,25.32,0,0,0-3.66-.47,5.83,5.83,0,0,1,3.81,0A5.46,5.46,0,0,1,280.08,466.2Z" style="fill:#fff"></path><path d="M274.26,453.9a14.44,14.44,0,0,1,.18,2.85h0v0c-.19,1.23-.46,2.8-.77,4.5-.36,2-.72,3.84-1,5.16a11,11,0,0,1-.54,2.11,9.7,9.7,0,0,1,.23-2.17c.19-1.33.5-3.16.86-5.17.31-1.71.62-3.27.87-4.49v0A16.65,16.65,0,0,1,274.26,453.9Z" style="fill:#455a64"></path><path d="M234.13,206.33a10.33,10.33,0,0,1-.45,1.67c-.17.53-.38,1.18-.56,1.95s-.45,1.63-.6,2.61a46.09,46.09,0,0,0-.86,6.92,66.26,66.26,0,0,0,.27,8.54c.57,6,1.48,11.5,1.91,15.47.22,2,.38,3.59.46,4.71a13.11,13.11,0,0,1,.08,1.73,9.32,9.32,0,0,1-.28-1.71c-.16-1.19-.37-2.77-.63-4.68-.52-4-1.48-9.39-2.06-15.47a63.49,63.49,0,0,1-.23-8.61,41.73,41.73,0,0,1,1-7c.18-1,.48-1.85.68-2.62s.45-1.41.64-1.93A11.51,11.51,0,0,1,234.13,206.33Z" style="fill:#263238"></path><path d="M339.22,272.85l13.38,12.94,4.23,8.13,2.61,9.46s-1.36,1.69-3-.59a12.76,12.76,0,0,1-2.09-4.79l-.25,8.79A2.3,2.3,0,0,1,351,304.4c-.11-3.32,0-6,0-6l-.9-2.57s.12,3.16-.22,3.81a38.39,38.39,0,0,1-3.64,3.63l-3.71,1.84a1.53,1.53,0,0,1-.43-2.15,5.33,5.33,0,0,1,2.12-1.91l-3.83.94a1.58,1.58,0,0,1,1-2.3l1.53-.55,1.19-1.47L344,296a4.93,4.93,0,0,1-2.46-4.12c-.35-3.19-2.92-3.77-5.66-7.33-.39-.52-.35-2.14-.89-2.55a6.18,6.18,0,0,0-4.19-.82Z" style="fill:#ffbf9d"></path><path d="M344.39,283.38a7.35,7.35,0,0,0-.06,4.43,18.7,18.7,0,0,0,1,2.7,12.5,12.5,0,0,1,1,2.75,2.72,2.72,0,0,1-.59,2.31,1.72,1.72,0,0,1-1.53.51,1.05,1.05,0,0,1-.42-.16c-.08-.06-.12-.09-.11-.1a2.54,2.54,0,0,0,.55.16,1.66,1.66,0,0,0,1.36-.54,2.54,2.54,0,0,0,.49-2.14,12.87,12.87,0,0,0-1-2.68,17.24,17.24,0,0,1-1-2.75,8.39,8.39,0,0,1-.26-2.38,5.68,5.68,0,0,1,.31-1.58A1.62,1.62,0,0,1,344.39,283.38Z" style="fill:#ff9a6c"></path><path d="M354.62,298.41s-.12-.13-.29-.41-.4-.67-.68-1.17c-.56-1-1.31-2.41-2.08-4-.62-1.25-1.15-2.43-1.57-3.38l.08.06-1.85-.49a3.33,3.33,0,0,1-.67-.23,2.28,2.28,0,0,1,.7.1l1.87.4.05,0,0,.05,1.61,3.35c.77,1.57,1.48,3,2,4A12.7,12.7,0,0,1,354.62,298.41Z" style="fill:#ff9a6c"></path><path d="M350.28,295.24a2.1,2.1,0,0,1-1.61.13,2.19,2.19,0,0,1-1.39-.8c.05-.07.63.35,1.45.53A14.63,14.63,0,0,0,350.28,295.24Z" style="fill:#ff9a6c"></path><path d="M346.94,295.48a19.83,19.83,0,0,1-.45,3.28,1.86,1.86,0,0,1-.74,1.11c-.32.25-.63.43-.86.61a3.88,3.88,0,0,0-.66.67s.06-.42.54-.82c.22-.21.52-.41.81-.66a1.6,1.6,0,0,0,.64-1A20.64,20.64,0,0,1,346.94,295.48Z" style="fill:#ff9a6c"></path><path d="M294.31,188.7s9.5,2.37,11.15,14.75c1.3,9.8,5.36,42.31,5.36,42.31l30.72,27.47-9.73,11.52s-29.35-17.27-34.9-22.34-8-35.26-8-35.26Z" style="fill:#e0e0e0"></path><path d="M292.46,215.36l1.85-26.66-15.53-3.5h-26.3l-16,3.22-6.31,17.13c.78,7.24,4.24,43.12,4.24,43.12s-4.09,7.69-7.61,21.86l19.82,11.65,38.53-11.61s-.52-16.47-.6-21.5Z" style="fill:#e0e0e0"></path><path d="M257.37,272.35a5.49,5.49,0,0,1,.16-.86c.14-.61.32-1.42.56-2.45s.55-2.37.87-3.89.71-3.24,1.08-5.16c.79-3.83,1.58-8.41,2.4-13.51s1.52-10.74,2.15-16.66c1.24-11.87,1.78-22.65,2-30.47.11-3.9.16-7.06.17-9.25,0-1.06,0-1.9,0-2.52a5.89,5.89,0,0,1,.05-.87,4.93,4.93,0,0,1,.06.87l.06,2.52c.05,2.19.06,5.35,0,9.26-.11,7.82-.6,18.63-1.84,30.51-.63,5.94-1.4,11.57-2.2,16.68s-1.67,9.69-2.51,13.51c-.39,1.92-.8,3.64-1.16,5.15s-.67,2.82-.95,3.87-.5,1.84-.66,2.44A4.41,4.41,0,0,1,257.37,272.35Z" style="fill:#263238"></path><polygon points="251.26 185.73 254.09 178.49 266.71 185.69 276.89 180.81 279.4 186.59 263.61 200.8 251.26 185.73" style="fill:#e0e0e0"></polygon><path d="M266.83,186.3A13.67,13.67,0,0,1,266,189a62,62,0,0,1-3,6.54l-.14.26-.24-.18-2-1.5c-2.74-2.09-5.21-4-7-5.42-.88-.7-1.6-1.28-2.08-1.69a3.81,3.81,0,0,1-.72-.68,3.69,3.69,0,0,1,.84.52c.53.36,1.27.89,2.18,1.56,1.83,1.33,4.33,3.21,7.08,5.3l2,1.51-.38.08c1.34-2.51,2.39-4.79,3.1-6.42A23.21,23.21,0,0,1,266.83,186.3Z" style="fill:#263238"></path><path d="M279.14,185.75a16.5,16.5,0,0,1-2,2.74,35.43,35.43,0,0,1-5.77,5.82,11.78,11.78,0,0,1-1,.67,1.38,1.38,0,0,1-1.32.2,1.65,1.65,0,0,1-.67-1.08c-.1-.34-.19-.69-.28-1-.37-1.34-.66-2.55-.87-3.58a11.78,11.78,0,0,1-.43-3.36c.07,0,.26,1.27.79,3.28.26,1,.58,2.21,1,3.53l.3,1c.09.34.22.67.43.77s.51,0,.83-.21a11.3,11.3,0,0,0,1-.63,43,43,0,0,0,5.79-5.64A30.6,30.6,0,0,1,279.14,185.75Z" style="fill:#263238"></path><path d="M310.82,245.76a2.25,2.25,0,0,1-.1-.63q-.09-.69-.21-1.8c-.19-1.64-.45-3.9-.77-6.65-.64-5.62-1.61-13.37-2.47-22-.45-4.3-.46-8.43-1.38-12a23.31,23.31,0,0,0-4.24-8.8,16.49,16.49,0,0,0-5.12-4.14c-1.4-.72-2.24-1-2.22-1.05a3.91,3.91,0,0,1,.61.18,15.54,15.54,0,0,1,1.7.69,15.9,15.9,0,0,1,5.31,4.09,23.11,23.11,0,0,1,4.42,8.91c1,3.67,1,7.83,1.43,12.1.91,8.55,1.73,16.29,2.33,22,.28,2.81.49,5.09.6,6.67.06.79.1,1.4.11,1.82A2.53,2.53,0,0,1,310.82,245.76Z" style="fill:#263238"></path><path d="M293.39,201a1.65,1.65,0,0,1,0,.51c0,.39,0,.88,0,1.46,0,1.28-.1,3.12-.28,5.39a146.94,146.94,0,0,1-2.57,17.6c-1.38,6.81-2.93,12.91-4.07,17.31l-1.39,5.21-.4,1.41a1.81,1.81,0,0,1-.18.48,2.34,2.34,0,0,1,.08-.51c.08-.39.18-.86.31-1.43.31-1.32.72-3.09,1.23-5.25,1-4.42,2.54-10.53,3.91-17.32a176.33,176.33,0,0,0,2.72-17.53c.22-2.26.37-4.1.44-5.37,0-.58.08-1.06.11-1.46A2.33,2.33,0,0,1,293.39,201Z" style="fill:#263238"></path><path d="M216.38,216c-2.23,8.1-4,21.41-6.6,34.43-3.08,15.45-6.48,28.66-8.75,43.89l12.51-.85,15.08-37.67,7.19-30.49s-2.08-17-.82-21.13a82.58,82.58,0,0,0,2.94-14.79A21.68,21.68,0,0,0,223.09,197C219.93,200.68,218.6,207.88,216.38,216Z" style="fill:#e0e0e0"></path><path d="M210.71,325.74s2.37-11,2.33-16.19-1.1-5.13-2.15-8.23l2-7.89-11.42.79-2,11.18-2,17.63s6.6,8.54,7.86,8.64a1.18,1.18,0,0,0,1.35-1.1s3.83.94,4.1-.38-3.59-3.64-3.59-3.64l-3-4.43,3.29-10.63s.35,6.94.39,7.56S206,325.85,210.71,325.74Z" style="fill:#ffbf9d"></path><path d="M207.8,324.18a3.3,3.3,0,0,1-.75.47,7.72,7.72,0,0,0-.78.62,9.19,9.19,0,0,0-.88,1,13.65,13.65,0,0,0-1.61,3.09,26.42,26.42,0,0,0-1.13,4.14,40.23,40.23,0,0,0-.65,7.81c0,2,.19,3.25.1,3.27a3,3,0,0,1-.2-.86,20.92,20.92,0,0,1-.27-2.4,33.45,33.45,0,0,1,.51-7.91,23.41,23.41,0,0,1,1.19-4.23A12.82,12.82,0,0,1,205.1,326a9.2,9.2,0,0,1,1-1,7.67,7.67,0,0,1,.87-.58A3,3,0,0,1,207.8,324.18Z" style="fill:#263238"></path><path d="M216,345.43a28.38,28.38,0,0,1-.23-3.29c-.12-2-.33-4.81-.77-7.87s-.9-5.85-1.85-7.61a8,8,0,0,0-2-2.48,1.89,1.89,0,0,1,.78.44,5.81,5.81,0,0,1,1.58,1.86c1.09,1.81,1.59,4.65,2,7.71a60.49,60.49,0,0,1,.63,7.94A16.27,16.27,0,0,1,216,345.43Z" style="fill:#263238"></path><polygon points="189.67 344.01 204.75 345.73 213.12 412.41 182.35 413.77 189.67 344.01" style="fill:#455a64"></polygon><polygon points="182.35 413.77 162.17 411.33 178.13 342.51 189.67 344.01 182.35 413.77" style="fill:#455a64"></polygon><polygon points="189.67 344.01 204.75 345.73 213.12 412.41 182.35 413.77 189.67 344.01" style="opacity:0.4"></polygon><polygon points="203.44 342.53 222.11 342.53 236.22 403.55 208.83 403.55 203.44 342.53" style="fill:#92E3A9"></polygon><polygon points="208.83 403.55 189.67 403.55 196.83 342.53 203.44 342.53 208.83 403.55" style="fill:#92E3A9"></polygon><polygon points="203.44 342.53 222.11 342.53 236.22 403.55 208.83 403.55 203.44 342.53" style="opacity:0.4"></polygon><path d="M205.48,323.35a1.83,1.83,0,0,0-1-.34,6.82,6.82,0,0,0-2.92.86,22.07,22.07,0,0,0-7.64,6.63,73.09,73.09,0,0,0-5,9c-.55,1.1-1,2-1.38,2.81a4.63,4.63,0,0,1-.55,1,5,5,0,0,1,.37-1.1c.27-.68.68-1.67,1.22-2.88a59.58,59.58,0,0,1,4.92-9.12,21.09,21.09,0,0,1,7.91-6.65,6.39,6.39,0,0,1,3.08-.73C205.26,322.89,205.52,323.36,205.48,323.35Z" style="fill:#263238"></path><path d="M219.38,206.33a1.31,1.31,0,0,1,0,.23c0,.17-.08.39-.13.66-.14.62-.32,1.46-.55,2.52-.51,2.24-1.22,5.39-2.09,9.27-1.76,7.82-4.16,18.64-6.66,30.62s-4.63,22.86-6.16,30.74l-1.82,9.32c-.22,1.07-.39,1.91-.52,2.53l-.14.66a.12.12,0,1,1-.05,0q0-.27.09-.66.15-.94.42-2.55c.4-2.26,1-5.44,1.66-9.36,1.44-7.89,3.51-18.78,6-30.77s5-22.8,6.81-30.61c.93-3.9,1.7-7,2.25-9.23.27-1.05.49-1.88.65-2.5l.18-.65C219.34,206.4,219.37,206.32,219.38,206.33Z" style="fill:#263238"></path><path d="M221.41,283.53s-6.94,23.44,4.83,53.41,18.34,53.93,18.79,60.38,1.17,13.13,7.35,33.57c4.52,14.92,7.86,23.84,7.86,23.84,4.69,2.57,9.67,3.26,14.2.77,0,0-.43-35.59-7.22-59.56s-11.44-61.43-9.12-75-2.71-21.24-2.71-21.24Z" style="fill:#455a64"></path><path d="M296,317.38c4.51-21.08-9.4-42.63-9.4-42.63l-36.18,28.5s-7.66,85.31-3.13,96.38,26.24,56.2,26.24,56.2l16.66-3.9s-6.17-36.79-11.12-46.12c-3.56-6.73-9.38-9.92-6.67-18.68S292.31,334.63,296,317.38Z" style="fill:#455a64"></path><path d="M221.24,284c-.13-.05,28.86,20.56,28.86,20.56L289,279l-4.09-14.69s-23,9.6-33.3,7.53-21.62-11-21.62-11A189,189,0,0,0,221.24,284Z" style="fill:#455a64"></path><path d="M240.26,289s.07.07.19.23l.53.71,2,2.77,7.55,10.51,0,0v0c-.37,3.93-.51,8.5-.76,13.59s-.53,10.68-.82,16.69-.67,12.44-1,19.17-.77,13.77-1.47,21c-.72,6-1.36,11.94-.83,17.63a38.41,38.41,0,0,0,.59,4.19,27.85,27.85,0,0,0,1,4c1,2.55,2.13,5,3.22,7.43,4.39,9.62,8.51,18.21,11.94,25.44s6.22,13.06,8.16,17.11l2.21,4.66.56,1.21c.13.28.18.42.18.42s-.08-.13-.22-.4-.34-.68-.61-1.19l-2.28-4.62-8.3-17.05c-3.46-7.22-7.61-15.8-12-25.42-1.09-2.41-2.24-4.86-3.25-7.46a27.93,27.93,0,0,1-1-4.07,42.21,42.21,0,0,1-.6-4.23c-.54-5.74.1-11.7.83-17.72.69-7.21,1.05-14.26,1.47-21s.74-13.16,1.08-19.17.61-11.61.88-16.69.44-9.65.84-13.59l0,.09-7.45-10.58-2-2.81-.49-.73C240.31,289.05,240.26,289,240.26,289Z" style="fill:#263238"></path><path d="M299.75,195.11,279.41,195l1.44,11.19s1.28,5.52,4.37,5.54l8.81.07a9.42,9.42,0,0,0,4.33-6Z" style="fill:#455a64"></path><path d="M299.75,195.11a2.07,2.07,0,0,0-.07.35c0,.25-.08.58-.15,1-.12.89-.3,2.14-.53,3.72s-.49,3.5-.8,5.69a9.12,9.12,0,0,1-4.24,5.74H294l-7-.07c-.62,0-1.26,0-1.88,0a2.62,2.62,0,0,1-1.62-.71,8,8,0,0,1-2-3.25,12.6,12.6,0,0,1-.45-1.44v0c-.51-4-1-7.73-1.45-11.2l-.16.19,14.59,0h5.75a1.46,1.46,0,0,0-.37,0l-1.09,0-4.17-.08-14.71-.2h-.18l0,.19,1.42,11.19h0a12.11,12.11,0,0,0,.46,1.48,8.27,8.27,0,0,0,2.12,3.39,2.93,2.93,0,0,0,1.84.79c.64,0,1.26,0,1.89,0l7,0h.05l0,0a9.41,9.41,0,0,0,4.35-6c.31-2.24.52-4.19.72-5.8s.33-2.83.43-3.72c.05-.41.08-.73.11-1S299.75,195.1,299.75,195.11Z" style="fill:#263238"></path><path d="M280.9,200.72l-.3-.07h0c.17,0-.05,0-.09,0-.22,0-.44,0-.66,0,.22,0,0,0-.08,0s-.23,0-.34.09-.2.06-.3.09,0,0,.06,0l-.19.09a5.21,5.21,0,0,0-.56.34l0,0a1,1,0,0,0-.11.1l-.26.24c-.06.07-.19.24-.07.07a3.13,3.13,0,0,0-.2.3c-.05.09-.09.18-.15.27s0,0,0-.05l-.07.19c0,.12-.07.23-.1.35s-.06.34,0,.2,0,.15,0,.2v.36c0,.07,0,.14,0,.21s0,.19,0,0,0,.15.05.2.05.2.08.3.13.36,0,.15a4.83,4.83,0,0,0,.32.59l.09.13s-.12-.14,0-.05a4.11,4.11,0,0,0,.29.3l.15.13.16.11c.09.05.18.11.27.15l.14.07c-.15-.08-.08,0,0,0a5.91,5.91,0,0,0,.69.19c.14,0-.05,0-.07,0l.2,0h.56s.25,0,.09,0,0,0,0,0l.2,0,.39-.12s.18-.07.05,0,.13-.07.13-.07a1.23,1.23,0,0,1,1.22,2.13,5.26,5.26,0,0,1-6.86-1.94,5.44,5.44,0,0,1-.55-3.87,5,5,0,0,1,2.26-3.09,5.29,5.29,0,0,1,4.18-.59,1.22,1.22,0,0,1-.67,2.35Z" style="fill:#455a64"></path><path d="M280.9,200.72a.74.74,0,0,0,.42.08,1.26,1.26,0,0,0,1-.62,1.28,1.28,0,0,0-.45-1.77,3.33,3.33,0,0,0-1.19-.32,6.23,6.23,0,0,0-1.36,0,5.36,5.36,0,0,0-2.8,1.3,5,5,0,0,0-1.67,3.13,5.44,5.44,0,0,0,.87,3.81,5.21,5.21,0,0,0,3.58,2.18,5.76,5.76,0,0,0,1.9-.05,5.88,5.88,0,0,0,.91-.26l.42-.19a1.21,1.21,0,0,0,.42-.3,1.4,1.4,0,0,0-1.74-2.15l.24.15a.16.16,0,0,0-.14-.16c-.1,0-.1,0-.1,0h-.06l-.06,0,0,0h0l0,0c0-.09-.13.25.07.29h.1l.07,0h0s0,0,.05,0c.09-.36-.25-.26-.15-.27h0l0,0-.06,0-.12,0a3.4,3.4,0,0,1-.51.12h0s0,0-.09.05-.06,0,0,.14.13.13.14.13h.16l.05,0,0,0s.09,0,0-.19-.11-.08-.12-.09h-.41l-.51,0,0,.31h.14a.11.11,0,0,0,.1,0,.16.16,0,0,0,.05-.17l0,0c-.09-.07-.06,0-.07,0h0l-.14,0-.27-.08-.26-.07-.12,0h0l0,0c.07-.06,0,.3-.09.26h-.06l.06,0,.13-.27-.34-.19-.16-.1-.05,0h0a.14.14,0,0,0-.09,0s0,0-.09,0a.16.16,0,0,0,0,.2l0,0,.05,0h0a.17.17,0,0,0,.09,0,.17.17,0,0,0,.12-.09c0-.08-.06-.2,0-.17h0a3.45,3.45,0,0,1-.28-.26l-.13-.14,0,0,0,0,0,0h0a.15.15,0,0,0-.18.1c0,.14,0,.07,0,.09h0l0,0h0l.05.06.23-.17c-.16-.22-.27-.47-.4-.69l-.25.11,0,.05,0,0s0,0,0,0h0s0,0,.1,0,.13-.15.13-.15h0v0l0-.1-.06-.17-.09-.35v-.11h0s0,0-.05-.08a.12.12,0,0,0-.13,0s0,0,0,0,0,.09,0,.1h0v.09h0c-.09.11.38.06.25,0h0v-.07a.19.19,0,0,1,0-.08,1.93,1.93,0,0,1,0-.34c0-.12,0-.22,0-.33v-.1s0-.06-.06-.1a.15.15,0,0,0-.13,0l0,.05,0,0v.11a.08.08,0,0,0,0,.05.1.1,0,0,0,.06.05.12.12,0,0,0,.15-.06,1.15,1.15,0,0,0,0-.2,5.76,5.76,0,0,1,.18-.59l-.21-.08,0,0,0,0v0h0a.13.13,0,0,0,.1.13.11.11,0,0,0,.09,0l0,0,.06-.1.1-.19.21-.33-.17-.12,0,0,0,0h0a.1.1,0,0,0,0,.1c.11.14.19,0,.17,0h0l.07-.08.13-.14a3.2,3.2,0,0,1,.27-.25l-.13-.14-.05,0,0,0h0l0,0c.21.29.08.06.12.13h0l.12-.07.22-.14a3.46,3.46,0,0,1,.41-.23l-.06-.15-.07,0h0l0,0s-.05.1,0,.12,0,0,0,0h.07l.15,0a1.38,1.38,0,0,1,.27-.08l.25-.07h.13c-.05,0,.11.06,0-.13h-.11v.12l.59,0h.22s0,0,0-.06l0,0h-.14s0,0,0,0,0,0,0,0h.07c.22.05.33.07.34.05l-.33-.11h-.06v0c0,.07,0,0,0,0h0l.1,0h0s0,0,0,0,0,0,0,0,0,0,0,0h-.81v.12h.1s0,0,0,0c-.1-.19.06-.11,0-.13h-.14l-.26.06a1.28,1.28,0,0,0-.28.07l-.15,0h0c.05.22.06.14.07.15l.08,0-.06-.15a3.09,3.09,0,0,0-.44.23l-.23.13-.12.07h0l.05.07s0-.07,0,0,0,0,0,0l0,0,0,0,.07,0-.13-.14a3,3,0,0,0-.28.25l-.15.14-.07.08h0s0,0,.06,0a0,0,0,0,1,0,0s0,0,0,0,0,0,0,0l0,0h0l0,0,0,0-.17-.12a4,4,0,0,0-.23.34l-.1.18s-.07.06,0,.1l.06.05.08,0h0v0l0-.06-.21-.08a4.67,4.67,0,0,0-.2.63l0,.08v.06h.12s0,0,0,0h.06l.05,0h0v0h0s-.05,0-.07,0a0,0,0,0,1,0,0s-.05,0-.06,0h-.07v.06c0,.11,0,.24,0,.36a2.16,2.16,0,0,0,0,.36s0,.07,0,.1v0h0s0,0,.1,0l.15,0h0v-.06h0l-.05,0s-.09,0-.07,0c-.2,0-.12,0-.14,0v0l0,.08a2.87,2.87,0,0,0,.08.38l.06.19,0,.08c.35-.14.23-.1.24-.13l0,0-.25.11c.14.24.25.51.42.75l.23-.17-.06-.07-.05,0s-.06,0-.08.06l0,0,0,0h0v0l0,0,.14.14a1.8,1.8,0,0,0,.28.27h0s0,0,0,0,.07-.1.09-.09,0,0,0,0l0-.08h0l0,0h0s-.05,0,0,.06,0,.08,0,.08,0-.05,0,0a.12.12,0,0,1-.05.09s0,0,0,0h0l0,0,.18.11.36.2.14-.27-.07,0h-.11c-.12,0-.15.32-.08.26l0,0,0,0,.14.05.27.08.28.07.13,0s0,.07,0-.13a1.11,1.11,0,0,0,0-.17h0l-.08,0,0,.31a3.32,3.32,0,0,0,.55,0,2.61,2.61,0,0,0,.28,0h.09s0,0,0,0a.46.46,0,0,0,0-.15.68.68,0,0,1,0-.14h-.1v0s0,.08,0,.09a0,0,0,0,1,0,0s0,0,0,0,0,0,0,.07a.32.32,0,0,0,0,.08h0a5.47,5.47,0,0,0,.55-.13l.14,0,.07,0h0l0-.06a.47.47,0,0,1,0-.09c-.12-.24-.06-.12-.08-.15h0l-.06,0h0s0,0,0,0,0,.11,0,.13l.08.12h0l.06,0,0,0h0s0,0-.09,0a.16.16,0,0,1-.12-.08.09.09,0,0,1,0-.05s0,0,.12,0l.11.15a1.06,1.06,0,0,1,1.33,1.62,2,2,0,0,1-.71.4,5.8,5.8,0,0,1-.84.24,5.38,5.38,0,0,1-1.79,0,4.91,4.91,0,0,1-3.35-2,5.2,5.2,0,0,1-.83-3.58,4.7,4.7,0,0,1,1.54-3,5.18,5.18,0,0,1,2.65-1.27,4.59,4.59,0,0,1,2.41.21,1.23,1.23,0,0,1,.56.76,1,1,0,0,1-.13.78,1.2,1.2,0,0,1-.92.62A1.61,1.61,0,0,1,280.9,200.72Z" style="fill:#263238"></path><path d="M266.9,195.67s-6.59,4-8.36,6.54S248,218.31,248,218.31l11.06,8,5.32-10.92s10.36-1.44,11.5-2.89.39-3.64.39-3.64,1.75-1.62,1.59-2.91c0,0,4.41-.5,4.55-1.84s-.37-2.82-2-2.92-5.35.18-4.15-.59,5.64-.07,6-2-.62-3.29-2.61-3-2.68.46-2.68.46,2.95-.95,2.9-3.58a.67.67,0,0,0-.93-.59,13,13,0,0,0-1.78.9C274.64,194.35,268.34,194.76,266.9,195.67Z" style="fill:#ffbf9d"></path><path d="M277.73,196a53.59,53.59,0,0,0-6.46,1,51,51,0,0,0-6.15,2.25,6.16,6.16,0,0,1,1.65-1,21.79,21.79,0,0,1,4.39-1.65,22.45,22.45,0,0,1,4.63-.68A6.84,6.84,0,0,1,277.73,196Z" style="fill:#ff9a6c"></path><path d="M277.82,205.72c0,.12-.46.23-1,.34s-1,.17-1.07.06.39-.37,1-.49S277.82,205.6,277.82,205.72Z" style="fill:#ff9a6c"></path><path d="M276.28,208.85c0,.11-.19.29-.52.4s-.62.11-.66,0,.2-.29.52-.4S276.25,208.73,276.28,208.85Z" style="fill:#ff9a6c"></path><path d="M235.47,190s-14.38,2.19-16.09,16.3-2.23,29.73-1,39.5c.91,7.43,4.73,16.44,13,16.72,5.87.19,12.39-6.38,15.55-10.45,5.46-7,12.11-25.81,12.11-25.81l-11.06-8L235.47,235l1.76-15.66Z" style="fill:#e0e0e0"></path><path d="M248.1,187.12s-.17.06-.49.14l-1.44.36L240.61,189l-4,1c-.74.18-1.51.35-2.3.51a19.52,19.52,0,0,0-11.48,8.14c-2.44,3.67-3.7,8.48-4.3,13.61-.31,2.58-.48,5.27-.65,8s-.28,5.62-.33,8.55A104.55,104.55,0,0,0,218.66,247a27.7,27.7,0,0,0,2.86,9.15,12.61,12.61,0,0,0,7.35,6.12,9.21,9.21,0,0,0,6.52-.69,23.34,23.34,0,0,0,2.93-1.64l1.4-.92a11.43,11.43,0,0,0,1.27-1,55.73,55.73,0,0,0,7.83-10.32,97.55,97.55,0,0,0,10-21.47l.08.24-11-8,.28,0L235.58,235l-.05.06h-.07a4.15,4.15,0,0,0-2.65,1,9.86,9.86,0,0,0-1.83,1.82,12,12,0,0,0-2,3.51,7.77,7.77,0,0,0-.45,2.43c0,.56.06.84,0,.85a6.49,6.49,0,0,1-.12-.85,7.59,7.59,0,0,1,.39-2.47,12.13,12.13,0,0,1,2-3.6,10.11,10.11,0,0,1,1.84-1.87,4.28,4.28,0,0,1,2.82-1l-.12,0,12.43-16.69.12-.16.15.12,11.08,8,.13.1,0,.15a97.79,97.79,0,0,1-10,21.61,56.25,56.25,0,0,1-7.91,10.43,12.78,12.78,0,0,1-1.33,1.08l-1.41.93a24.94,24.94,0,0,1-3,1.68,11.36,11.36,0,0,1-3.35,1,9.15,9.15,0,0,1-3.53-.28,13.06,13.06,0,0,1-7.66-6.37,27.91,27.91,0,0,1-2.91-9.32,103.68,103.68,0,0,1-1.1-18.37c.05-2.94.19-5.79.36-8.57s.35-5.46.67-8.06c.63-5.17,1.91-10,4.42-13.77a20.05,20.05,0,0,1,9.28-7.42,18.64,18.64,0,0,1,2.45-.77c.8-.16,1.58-.32,2.31-.49l4-.91,5.57-1.23,1.46-.31C247.92,187.14,248.1,187.12,248.1,187.12Z" style="fill:#263238"></path><path d="M237.23,232.61A43.32,43.32,0,0,1,237,226a43.4,43.4,0,0,1,.26-6.66,41.93,41.93,0,0,1,.26,6.66A41.85,41.85,0,0,1,237.23,232.61Z" style="fill:#263238"></path><path d="M237.87,205c-.16,0-.3-2.88-1.11-6.32s-2-6.08-1.81-6.14a5.74,5.74,0,0,1,.9,1.67,27,27,0,0,1,2.08,8.89A6.14,6.14,0,0,1,237.87,205Z" style="fill:#263238"></path></g><g id="freepik--Cat--inject-338"><path d="M114.58,206.42s-.55-5.5,1.91-8.81,4.87-3.75,12-4.35,13,2.1,14.8,5.8,1.47,8.75-.31,13.05l-1,2.32s1.5,2.22,1.69,10.33-5,14.94-5,14.94l-8.41,2.5H79s-3.67-9-3.22-13.33c.62-6.05,5.1-18.26,18.81-18.26,3.47,0,8.89,1.63,11.06,1.87,8.91,1,9.68.34,9.68.34Z" style="fill:#92E3A9"></path><g style="opacity:0.30000000000000004"><path d="M122.58,218.75s2.85.25,6.21,3.78S133,234.72,133,234.72l-.47-.2Z"></path></g><path d="M149.48,240.06a20,20,0,0,0-2.81-.54s-2.69-1.07-5.53-2.42l-8.58-2.58a34,34,0,0,0-3.34-10.18c-4-7.09-12.57-6.65-12.57-6.65l-5.13,10.38s4.7,5,5.63,9.15,0,4.94,0,4.94l27.31,0h6.7A2.48,2.48,0,0,0,149.48,240.06Z" style="fill:#92E3A9"></path><g style="opacity:0.4"><path d="M134.64,201.94l-.65-.28a3.69,3.69,0,0,0-1-.5l-1.16-7.94a24.91,24.91,0,0,0-4,.09,22.62,22.62,0,0,1,2.37,7.92,3.56,3.56,0,0,0-.86.46,4.12,4.12,0,0,0-1.48,4.4,4.07,4.07,0,0,0,7.62.43A4.22,4.22,0,0,0,134.64,201.94Z" style="fill:#fff"></path></g><path d="M128.54,201.26a3.61,3.61,0,1,1-3.6-3.6A3.61,3.61,0,0,1,128.54,201.26Z" style="fill:#fff"></path><path d="M128.54,201.26a6.43,6.43,0,0,0-.14-.87,3.59,3.59,0,0,0-1.31-2,3.48,3.48,0,0,0-1.5-.65,3.63,3.63,0,0,0-1.86.15,3.24,3.24,0,0,0-.89.49,3.14,3.14,0,0,0-.75.75,3.51,3.51,0,0,0,0,4.18,3.51,3.51,0,0,0,1.64,1.24,3.53,3.53,0,0,0,1.86.16,3.49,3.49,0,0,0,1.5-.66,3.57,3.57,0,0,0,1.31-2,6.67,6.67,0,0,0,.14-.88.15.15,0,0,1,0,.06v.17a1.47,1.47,0,0,1,0,.28,2.06,2.06,0,0,1-.07.38,3.22,3.22,0,0,1-.39,1,3.36,3.36,0,0,1-.91,1,3.53,3.53,0,0,1-1.54.7,3.65,3.65,0,0,1-1.92-.16,3.46,3.46,0,0,1-.93-.49,3.61,3.61,0,0,1-.78-.78,3.67,3.67,0,0,1,0-4.34,3.56,3.56,0,0,1,.78-.77,3.23,3.23,0,0,1,.93-.5,3.66,3.66,0,0,1,3.46.54,3.6,3.6,0,0,1,.91,1,3.27,3.27,0,0,1,.39,1,2,2,0,0,1,.07.37,1.52,1.52,0,0,1,0,.28v.17A.15.15,0,0,1,128.54,201.26Z" style="fill:#263238"></path><path d="M125.34,201c-.32-1.28,0-2.46.73-2.65s1.58.71,1.9,2,0,2.47-.73,2.65S125.66,202.26,125.34,201Z" style="fill:#92E3A9"></path><path d="M117,198s1.24-9.45,2.69-10.53S126.6,194,126.6,194l-7.45,3.39Z" style="fill:#92E3A9"></path><path d="M132.57,193.91s2.71-4.09,3.28-4.65,1.88-2.69,3.18-1.91,2.08,9,2.08,9l-5.73-1.13Z" style="fill:#92E3A9"></path><path d="M130.27,201.59a4,4,0,0,1,2.78-.08.31.31,0,0,1,.25.51l-1,1.21a.31.31,0,0,1-.4.06l-1.75-1.14A.31.31,0,0,1,130.27,201.59Z" style="fill:#263238"></path><path d="M83.73,259.87c-.76-5.21-5.28-9-9.84-11.66a7.37,7.37,0,0,1-2-1.48,2.3,2.3,0,0,1-.5-2.32c.45-1,1.7-1.32,2.79-1.5l5.24-.88L78,234.69a38.25,38.25,0,0,0-8.88,2.07,12.91,12.91,0,0,0-6.81,5.81,7.84,7.84,0,0,0,.75,8.57c1.51,1.71,3.83,2.51,5.38,4.18a6.87,6.87,0,0,1,1.31,7.14c-.71,1.73-2.15,3.26-2.09,5.12.09,2.54,3,4.1,5.52,4.17a10.38,10.38,0,0,0,10.55-11.88Z" style="fill:#92E3A9"></path><path d="M105.62,217.94a14.28,14.28,0,0,1-1.72-1,14.81,14.81,0,0,1-1.65-1.07,15,15,0,0,1,1.72,1A14,14,0,0,1,105.62,217.94Z" style="fill:#263238"></path><path d="M127.22,200.71c.07.12-.23.45-.68.73s-.88.43-1,.31.23-.44.68-.73S127.15,200.6,127.22,200.71Z" style="fill:#fff"></path><path d="M132.09,203.19a1,1,0,0,1,.06.27,2.64,2.64,0,0,1,0,.76,2.89,2.89,0,0,1-.34,1.06,2.6,2.6,0,0,1-1,1,2.38,2.38,0,0,1-1.34.33,2.29,2.29,0,0,1-1.06-.36,1.93,1.93,0,0,1-.54-.53,1.05,1.05,0,0,1-.13-.25,2.77,2.77,0,0,0,.72.7,2.32,2.32,0,0,0,1,.32,2.27,2.27,0,0,0,1.26-.33,2.59,2.59,0,0,0,.93-.93,3,3,0,0,0,.35-1A5.63,5.63,0,0,0,132.09,203.19Z" style="fill:#263238"></path><path d="M136.13,204.68s0,.09-.12.23a3.6,3.6,0,0,1-.4.57,1.89,1.89,0,0,1-.85.62,1.68,1.68,0,0,1-1.27-.12,2.22,2.22,0,0,1-1-.86,3.7,3.7,0,0,1-.38-1,5.15,5.15,0,0,1-.1-.69.66.66,0,0,1,0-.26s0,.37.18.93a3.3,3.3,0,0,0,.4.93,2.09,2.09,0,0,0,.89.82,1.59,1.59,0,0,0,1.18.11,1.87,1.87,0,0,0,.82-.56C135.93,205,136.11,204.67,136.13,204.68Z" style="fill:#263238"></path><path d="M133.53,206.56s-.06.16-.27.35a1.76,1.76,0,0,1-2,.26.84.84,0,0,1-.35-.26,3.89,3.89,0,0,1,.39.18,2.07,2.07,0,0,0,1,.13,2.18,2.18,0,0,0,.92-.38C133.41,206.68,133.52,206.55,133.53,206.56Z" style="fill:#263238"></path><g style="opacity:0.30000000000000004"><path d="M119.48,196.71s0-8,.79-8.14,5,5.52,5,5.52S121.93,197.37,119.48,196.71Z"></path></g><path d="M125.58,194a7.68,7.68,0,0,0-3.43.21,2,2,0,0,1,1.07.65,10.58,10.58,0,0,0-4.64,2.49l1.23.28,4.69-.71Z" style="fill:#92E3A9"></path><g style="opacity:0.30000000000000004"><path d="M133.46,194.22s4.65-6.52,5.37-6.17.82,7.37.82,7.37S135.07,196.18,133.46,194.22Z"></path></g><path d="M140,195.58a7.63,7.63,0,0,0-2.92-1.82,2.06,2.06,0,0,1,.5,1.15,10.6,10.6,0,0,0-5.23-.67l.84.95,4.24,2.14Z" style="fill:#92E3A9"></path><path d="M141.43,200.73a3.61,3.61,0,1,1-3.6-3.6A3.61,3.61,0,0,1,141.43,200.73Z" style="fill:#fff"></path><path d="M141.43,200.73a6.43,6.43,0,0,0-.14-.87,3.64,3.64,0,0,0-1.31-2,3.48,3.48,0,0,0-1.5-.65,3.62,3.62,0,0,0-1.86.15,3.44,3.44,0,0,0-.9.49,3.29,3.29,0,0,0-.74.75,3.51,3.51,0,0,0,0,4.18,3.34,3.34,0,0,0,.74.76,3.41,3.41,0,0,0,.9.48,3.54,3.54,0,0,0,3.36-.5,3.62,3.62,0,0,0,1.31-1.95,6.67,6.67,0,0,0,.14-.88V201a1.47,1.47,0,0,1,0,.28,2.06,2.06,0,0,1-.07.38,3.22,3.22,0,0,1-.39,1,3.36,3.36,0,0,1-.91,1,3.58,3.58,0,0,1-1.54.7,3.65,3.65,0,0,1-1.92-.16,3.46,3.46,0,0,1-.93-.49,3.65,3.65,0,0,1-1.49-3,3.66,3.66,0,0,1,.71-2.17,3.56,3.56,0,0,1,.78-.77,3.23,3.23,0,0,1,.93-.5,3.64,3.64,0,0,1,1.92-.15,3.75,3.75,0,0,1,1.54.69,3.6,3.6,0,0,1,.91,1,3.27,3.27,0,0,1,.39,1,2,2,0,0,1,.07.37,1.52,1.52,0,0,1,0,.28v.23Z" style="fill:#263238"></path><g style="opacity:0.4"><path d="M142.27,237.52a8.68,8.68,0,0,1-5.1,3.26c-.24.05-.55.07-.68-.14s0-.49.15-.7c.75-1.1,1.44-2.25,2.25-3.3l.17-.22,2.08.68Z" style="fill:#fff"></path></g><path d="M138.36,200.48c-.25-1.3.15-2.47.89-2.61s1.53.81,1.77,2.1-.15,2.47-.89,2.61S138.6,201.77,138.36,200.48Z" style="fill:#92E3A9"></path><path d="M140,200.37c.06.12-.29.41-.77.63s-.93.31-1,.18.28-.41.77-.63S139.91,200.24,140,200.37Z" style="fill:#fff"></path><path d="M141.14,235.47c1.81-2.87,3.31-7.47,2.65-10.8l.68,1.74a15.63,15.63,0,0,0-.85-5.67l1.28,1.65a25.31,25.31,0,0,0-3-8" style="fill:#92E3A9"></path><path d="M141.93,214.43l.09.13c.06.09.15.22.25.4a16.62,16.62,0,0,1,.81,1.55,28.7,28.7,0,0,1,1.88,5.86l0,.25-.16-.2-1.28-1.64.11-.06a16,16,0,0,1,.83,4.1c0,.54,0,1.07,0,1.6v.32l-.12-.3c-.22-.6-.45-1.18-.67-1.75l.13,0A10,10,0,0,1,144,227a14.13,14.13,0,0,1-.29,2.15,19,19,0,0,1-1.07,3.44,15.77,15.77,0,0,1-1,2.13c-.13.24-.25.42-.33.54l-.09.14,0,.05,0-.05.08-.15c.07-.13.19-.31.32-.55a20.4,20.4,0,0,0,1-2.15,19.8,19.8,0,0,0,1-3.42,14.19,14.19,0,0,0,.28-2.14,9.73,9.73,0,0,0-.14-2.33l.12,0c.22.56.45,1.14.68,1.74l-.13,0c0-.52,0-1,0-1.58a16.14,16.14,0,0,0-.82-4.07l-.12-.36.23.3,1.28,1.65-.11.05a29.3,29.3,0,0,0-1.83-5.86,17.52,17.52,0,0,0-.78-1.57c-.09-.17-.18-.3-.23-.4S141.92,214.43,141.93,214.43Z" style="fill:#263238"></path><g style="opacity:0.4"><path d="M96.26,242a9.14,9.14,0,0,1,4-3.44,5.93,5.93,0,0,1,4.06.26,3.92,3.92,0,0,1,2.65,3.33Z" style="fill:#fff"></path></g><path d="M101.8,239.61a3.72,3.72,0,0,1,.74,0,4,4,0,0,1,1.75.42,2.14,2.14,0,0,1,.76.66,1.68,1.68,0,0,1,.31.76,1.39,1.39,0,0,1,0,.55.61.61,0,0,1-.08.19,2.06,2.06,0,0,0,0-.73,1.67,1.67,0,0,0-.32-.7,2.2,2.2,0,0,0-.72-.62,4.33,4.33,0,0,0-1.69-.43A6.51,6.51,0,0,1,101.8,239.61Z" style="fill:#263238"></path><path d="M66.06,244.61s0,0-.06.13l-.21.37L65,246.43l-.07.13,0-.15a3.55,3.55,0,0,1,.32-2.18l.11.07c-.18.2-.37.42-.57.63l-1,1.15-.12.14V246a7.25,7.25,0,0,1,.68-2.5,4.55,4.55,0,0,1,.36-.66,1.77,1.77,0,0,1,.15-.22,1.37,1.37,0,0,1-.12.24c-.08.15-.2.38-.32.67a7.56,7.56,0,0,0-.62,2.48l-.11,0,1-1.16.56-.62.33-.37-.22.44A3.47,3.47,0,0,0,65,246.4l-.1,0,.8-1.3.23-.36C66,244.64,66.06,244.6,66.06,244.61Z" style="fill:#263238"></path><path d="M76.21,257.75a1.3,1.3,0,0,1-.23-.16l-.62-.46c-.52-.39-1.24-.95-2-1.59l.1-.07.29.69.62,1.46.05.13-.13-.05a2.85,2.85,0,0,1-1.53-1.32,2.94,2.94,0,0,1-.23-.54q0-.21,0-.21a4.79,4.79,0,0,0,.32.71,2.9,2.9,0,0,0,1.51,1.24l-.07.09c-.2-.45-.41-.94-.63-1.45l-.29-.7-.1-.24.2.16c.81.64,1.52,1.21,2,1.63l.59.49A1.08,1.08,0,0,1,76.21,257.75Z" style="fill:#263238"></path><path d="M84.57,213.46c-3,1.25-8.19,6.83-9,9.48.63-.66,1.27-1.32,1.91-2a12.51,12.51,0,0,0-2.37,10.43,7.84,7.84,0,0,1,1-3.5,10.89,10.89,0,0,0,.54,7.07" style="fill:#92E3A9"></path><path d="M76.64,235s0,0-.06-.11-.09-.19-.15-.35a10.17,10.17,0,0,1-.42-1.39,12.58,12.58,0,0,1-.31-2.26,9.85,9.85,0,0,1,0-1.42,6.36,6.36,0,0,1,.31-1.55l.09,0a6.82,6.82,0,0,0-.68,1.6,12,12,0,0,0-.32,1.87l0,.36-.08-.35a12.3,12.3,0,0,1,.12-5.92,12.25,12.25,0,0,1,2.26-4.56l.09.08-1.91,2-.2.21.1-.27a10.18,10.18,0,0,1,1.36-2.45c.52-.72,1.06-1.39,1.59-2a29.33,29.33,0,0,1,3-3,14.4,14.4,0,0,1,2.24-1.62,4.68,4.68,0,0,1,.66-.34l.17-.08.06,0-.06,0-.16.09a6.13,6.13,0,0,0-.65.36,14.83,14.83,0,0,0-2.21,1.64,30.66,30.66,0,0,0-3,3c-.53.6-1.06,1.27-1.58,2A10.28,10.28,0,0,0,75.61,223l-.11-.06,1.91-2,.1.09a11.83,11.83,0,0,0-1.52,2.5,11.49,11.49,0,0,0-.72,2,13.31,13.31,0,0,0-.36,2,12.66,12.66,0,0,0,.23,3.83H75a11.12,11.12,0,0,1,.33-1.89,6.59,6.59,0,0,1,.69-1.62l.26-.44-.16.48a6.74,6.74,0,0,0-.32,1.53,9.78,9.78,0,0,0,0,1.41,12.86,12.86,0,0,0,.28,2.25,10.7,10.7,0,0,0,.4,1.39c.05.16.1.27.13.35Z" style="fill:#263238"></path><path d="M84.57,237.67l-.07-.06-.17-.16c-.16-.15-.37-.37-.64-.66a13.75,13.75,0,0,1-1.85-2.69l.11,0a7.93,7.93,0,0,0,.14,2.19l0,.21-.15-.15a5.87,5.87,0,0,1-1.14-1.63,5.67,5.67,0,0,1-.55-2.33h.12a5.46,5.46,0,0,0-.17,2.66l.08.48-.18-.45a7.81,7.81,0,0,1-.61-2.54c0-.31,0-.56,0-.72s0-.15,0-.19a.32.32,0,0,0,0-.07,1.11,1.11,0,0,1,0,.26c0,.16,0,.41,0,.72a8.37,8.37,0,0,0,.64,2.5l-.1,0a5.65,5.65,0,0,1,.16-2.71l.12-.36v.37a5.63,5.63,0,0,0,.54,2.29,5.73,5.73,0,0,0,1.11,1.59l-.1.06a7.46,7.46,0,0,1-.13-2.23l0-.19.09.17a14.59,14.59,0,0,0,1.79,2.69c.26.3.47.53.61.68A2.12,2.12,0,0,1,84.57,237.67Z" style="fill:#263238"></path><path d="M119.58,242.2h-.2l-.56,0-2-.13h-.2l.18-.09a3.13,3.13,0,0,0,1.43-1.35l.07.09L117,241l-.1,0,0-.1a8.88,8.88,0,0,0,.27-1.57,8.43,8.43,0,0,0-.33-3,8.33,8.33,0,0,0-1-2.22,8.53,8.53,0,0,0-1-1.3l-.33-.32-.11-.12.13.1.34.3a7.69,7.69,0,0,1,1.07,1.29,8.5,8.5,0,0,1,1,2.24,8.63,8.63,0,0,1,.34,3,8.13,8.13,0,0,1-.28,1.59l-.08-.08,1.29-.3.13,0-.06.12A3.26,3.26,0,0,1,116.8,242l0-.09,2,.17.57.06Z" style="fill:#263238"></path><path d="M136.42,212l0,.09-.14.25a8.94,8.94,0,0,1-.62.89,10.4,10.4,0,0,1-2.82,2.5l-.15.09.06-.16a3.89,3.89,0,0,0,.22-1.46l.12,0a5.54,5.54,0,0,1-.72,1,5.77,5.77,0,0,1-1.3,1l-.13.07,0-.14c.15-.62.3-1.21.44-1.76l.1,0a6.06,6.06,0,0,1-2.06,1.45l-.13,0,.08-.11a5.14,5.14,0,0,0,.61-1.31c.05-.16.08-.29.1-.37s0-.13,0-.13a1.16,1.16,0,0,1,0,.13c0,.09,0,.22-.09.39a4.75,4.75,0,0,1-.58,1.33l-.05-.06a6.17,6.17,0,0,0,2-1.45l.15-.17,0,.23c-.14.55-.28,1.14-.43,1.76l-.09-.07a5.76,5.76,0,0,0,1.26-1,5.16,5.16,0,0,0,.71-.94l.11-.19v.22a4.11,4.11,0,0,1-.23,1.5l-.09-.07a10.84,10.84,0,0,0,2.82-2.44c.29-.36.5-.66.64-.87Z" style="fill:#263238"></path><path d="M104.91,219.27a1.25,1.25,0,0,1-.29-.16l-.79-.48a21.15,21.15,0,0,0-2.72-1.32,21.38,21.38,0,0,0-2.88-.92l-.89-.21a1.3,1.3,0,0,1-.33-.08,1.36,1.36,0,0,1,.33,0c.22,0,.53.09.91.17a17.49,17.49,0,0,1,2.91.89,18.48,18.48,0,0,1,2.72,1.36c.33.21.59.38.76.51S104.91,219.27,104.91,219.27Z" style="fill:#263238"></path><path d="M119.06,197.13l.06-.08a2.08,2.08,0,0,1,.18-.21,4.34,4.34,0,0,1,.77-.65,8.52,8.52,0,0,1,3.08-1.28h0l0,.11a2.49,2.49,0,0,0-1-.69l-.14-.06.14-.06a5,5,0,0,1,2.46-.34,4.22,4.22,0,0,1,.71.15.73.73,0,0,1,.25.09s-.36-.1-1-.16a5.1,5.1,0,0,0-2.4.38v-.12a2.66,2.66,0,0,1,1,.72l.07.08-.11,0h0a9.39,9.39,0,0,0-3.06,1.23A8.38,8.38,0,0,0,119.06,197.13Z" style="fill:#263238"></path><path d="M132.89,194.15l.09,0,.29,0a6.57,6.57,0,0,1,1,0,8.71,8.71,0,0,1,3.35.85l-.1.06v-.07a1.9,1.9,0,0,0-.23-.58c-.1-.18-.21-.35-.32-.52l-.07-.14.15,0a6,6,0,0,1,2.3,1.28,5.49,5.49,0,0,1,.52.57,1.1,1.1,0,0,1,.15.24,8.25,8.25,0,0,0-.72-.75,6.23,6.23,0,0,0-2.29-1.22l.07-.09c.1.17.22.34.33.53a1.84,1.84,0,0,1,.24.63v.18l-.1,0a9.49,9.49,0,0,0-3.29-.87,9.78,9.78,0,0,0-1,0Z" style="fill:#263238"></path><g style="opacity:0.4"><path d="M114.77,202.27a12.42,12.42,0,0,0,3.86.58,1.27,1.27,0,0,0,1.12-.51.93.93,0,0,0-.23-1,2.86,2.86,0,0,0-1-.55l-3.13-1.27A11.76,11.76,0,0,0,114.77,202.27Z" style="fill:#fff"></path></g><g style="opacity:0.4"><path d="M144.22,202.7c-.22-.57-.08,1.23-.46,1.71a7.24,7.24,0,0,1-1.35,1.24,4.14,4.14,0,0,0-1.22,1.35,1.35,1.35,0,0,0,.1,1.54,1.79,1.79,0,0,0,1.27.34,1.6,1.6,0,0,0,1.43-.56S145.19,205.13,144.22,202.7Z" style="fill:#fff"></path></g><g style="opacity:0.4"><path d="M141.15,221.57a8.3,8.3,0,0,0-4.47-4.49,4.82,4.82,0,0,0-5.72,1.8,5.26,5.26,0,0,0-.56,3.08,19.28,19.28,0,0,0,.64,3.11,60.56,60.56,0,0,1,2,9.65l6.59,1.89c1.26-2.84,2.53-5.76,2.71-8.86A13,13,0,0,0,141.15,221.57Z" style="fill:#fff"></path></g><g style="opacity:0.4"><path d="M103.29,223.75c.7,1.55-7,9-12.49,9.89a1.56,1.56,0,0,1-1.33-.21,1.09,1.09,0,0,1,0-1.42,3.25,3.25,0,0,1,1.3-.81,16.88,16.88,0,0,0,5.71-4.44c1.7-1.86,3.15-4.45,2.75-6.93C99.28,219.83,102.3,221.54,103.29,223.75Z" style="fill:#fff"></path></g><g style="opacity:0.4"><path d="M144.56,242.2l2.12-2.62s3.16-.05,4,1.38a2.21,2.21,0,0,1,.3.52,4,4,0,0,1,.16.72Z" style="fill:#fff"></path></g><path d="M149.81,242.4a3.32,3.32,0,0,1-.14-.55,1.74,1.74,0,0,0-.65-1.1,2,2,0,0,0-1.28-.21,3.57,3.57,0,0,1-.56.06,2,2,0,0,1,.55-.15,2.89,2.89,0,0,1,.62,0,1.63,1.63,0,0,1,.74.23,1.39,1.39,0,0,1,.5.59,2.41,2.41,0,0,1,.17.6A2.2,2.2,0,0,1,149.81,242.4Z" style="fill:#263238"></path><g style="opacity:0.4"><path d="M133.85,234.9a16,16,0,0,1-8.92,6.11c-.46.12-1.14.08-1.19-.4a.85.85,0,0,1,.32-.63c2.57-2.78,5.27-5.56,7.85-8.35l.65,2.89Z" style="fill:#fff"></path></g><g style="opacity:0.4"><path d="M129.83,225.37s-4.92,4.76-7.92,6a1.29,1.29,0,0,1-1.06.11.89.89,0,0,1-.33-1.11,2.64,2.64,0,0,1,.77-1,42.9,42.9,0,0,0,6.12-7.57S128.09,222.31,129.83,225.37Z" style="fill:#fff"></path></g><g style="opacity:0.4"><path d="M78.6,270.38a3,3,0,0,0,1.28-2.45,6.37,6.37,0,0,0-10.06-5.83s-.67,1.56-.95,2.06-2.58,3.49-.13,5.81A7,7,0,0,0,75,271.64,9.88,9.88,0,0,0,78.6,270.38Z" style="fill:#fff"></path></g><path d="M151.16,242.2s0-.12,0-.34a2.62,2.62,0,0,0-.42-.89h0a2.9,2.9,0,0,0-1.48-1,7.93,7.93,0,0,0-2.53-.38h0l-5.54-2.41h0l-8.58-2.56,0,0v0c-.11-.6-.23-1.24-.36-1.88a26.66,26.66,0,0,0-2.91-8.28,14.14,14.14,0,0,0-2.37-3,11.4,11.4,0,0,0-2.72-1.92,17.59,17.59,0,0,0-2.57-1c-.78-.24-1.46-.41-2-.54l-1.28-.3-.34-.08-.11,0,.11,0,.34.07c.3,0,.73.14,1.3.27s1.24.29,2,.52a15.63,15.63,0,0,1,2.59,1,11.3,11.3,0,0,1,2.76,1.92,14.09,14.09,0,0,1,2.39,3,26.7,26.7,0,0,1,2.94,8.31c.13.64.25,1.28.36,1.88l0,0,8.58,2.58h0l5.53,2.44h0a7.7,7.7,0,0,1,2.55.41,2.89,2.89,0,0,1,1.5,1.06h0a2.23,2.23,0,0,1,.41.91A1.45,1.45,0,0,1,151.16,242.2Z" style="fill:#263238"></path><g style="opacity:0.30000000000000004"><path d="M106.59,237.93a4.9,4.9,0,0,0-3.67-1.48,9.87,9.87,0,0,0,2.21-8.29,9.55,9.55,0,0,0-1.44-3.47,11.56,11.56,0,0,1,.35,4.19,18.38,18.38,0,0,1-3.54,9.44,8.58,8.58,0,0,1,4.51.77,3.45,3.45,0,0,1,1.92,2.56l.1.56.91,0A6.19,6.19,0,0,0,106.59,237.93Z"></path></g><g style="opacity:0.4"><path d="M93.83,218.67a16.84,16.84,0,0,0-5.71.78,24.2,24.2,0,0,0-3.5,3.24,1.71,1.71,0,0,0-.56,1.31,1.2,1.2,0,0,0,1.35.83,3.37,3.37,0,0,0,1.55-.76c2.3-1.66,4.68-3.62,6.87-5.4" style="fill:#fff"></path></g><path d="M78.72,242.16h2.14l5.92,0h20.16l-.06.07a8.76,8.76,0,0,0-.18-.89,3.21,3.21,0,0,0-.36-.83,3.31,3.31,0,0,0-1.33-1.24,9,9,0,0,0-3.7-.87,6,6,0,0,0-.87.06l-.15,0,.09-.13a18.37,18.37,0,0,0,3-6.32,19,19,0,0,0,.54-3.29,12.52,12.52,0,0,0-.17-3.19,7.35,7.35,0,0,0-1.13-2.78,7.55,7.55,0,0,0-2-2,11.13,11.13,0,0,0-4.74-1.87,17.16,17.16,0,0,0-4.23,0,30.58,30.58,0,0,0-3.16.52c-.86.18-1.53.33-2,.44l-.51.11-.18,0,.17,0,.51-.13,2-.46a29.59,29.59,0,0,1,3.16-.54,16.77,16.77,0,0,1,4.25,0,11.24,11.24,0,0,1,4.79,1.87,9.32,9.32,0,0,1,1.09.92,7.36,7.36,0,0,1,.93,1.13,7.53,7.53,0,0,1,1.16,2.83,12.73,12.73,0,0,1,.17,3.22,18.53,18.53,0,0,1-3.56,9.68l-.07-.11a6.44,6.44,0,0,1,.89-.06,9.48,9.48,0,0,1,3.76.88,3.5,3.5,0,0,1,1.38,1.29,3.88,3.88,0,0,1,.38.86,7.63,7.63,0,0,1,.17.91l0,.07h-.08l-20.16,0-5.92,0H78.72Z" style="fill:#263238"></path><path d="M128.85,204.71s-4.5.71-10.06,1.5-10.07,1.41-10.07,1.38,4.49-.71,10.06-1.51S128.85,204.67,128.85,204.71Z" style="fill:#263238"></path><path d="M129.33,205.23l-.16.05-.47.14-1.75.46c-1.48.38-3.53.87-5.82,1.34s-4.36.83-5.87,1.06l-1.79.27-.48.06h-.17l.16,0,.49-.08,1.78-.31c1.5-.26,3.58-.63,5.86-1.1s4.33-.94,5.82-1.3l1.75-.42.48-.11Z" style="fill:#263238"></path><path d="M149,204.71s-3.33,0-7.43-.11-7.43-.21-7.43-.24,3.33,0,7.43.11S149,204.67,149,204.71Z" style="fill:#263238"></path><path d="M146.43,207.23s-2.59-.42-5.77-1-5.76-1.1-5.76-1.13,2.6.41,5.78,1S146.44,207.19,146.43,207.23Z" style="fill:#263238"></path><path d="M132.45,201.61s-.47,0-1,0-1,.18-1,.15a2.1,2.1,0,0,1,1-.28A2.13,2.13,0,0,1,132.45,201.61Z" style="fill:#fff"></path><path d="M118.42,191.71a6.07,6.07,0,0,1-.1.67c-.08.45-.17,1-.28,1.59l-.24,1.6a3.49,3.49,0,0,1-.12.66,2.85,2.85,0,0,1,0-.67c0-.42.1-1,.21-1.61s.21-1.19.31-1.59A3.16,3.16,0,0,1,118.42,191.71Z" style="fill:#fff"></path><path d="M136.46,189.4a20.23,20.23,0,0,1-1.43,1.92c-.83,1-1.52,1.86-1.54,1.84a21.85,21.85,0,0,1,1.43-1.92C135.75,190.2,136.44,189.38,136.46,189.4Z" style="fill:#fff"></path><path d="M130.93,208.88a2.6,2.6,0,0,1-2.42-.77,5.86,5.86,0,0,0,1.15.58A5.94,5.94,0,0,0,130.93,208.88Z" style="fill:#fff"></path><path d="M111.27,214.79s-.55-.19-1.23-.4-1.25-.36-1.24-.4a4.57,4.57,0,0,1,1.28.27A4.43,4.43,0,0,1,111.27,214.79Z" style="fill:#fff"></path><path d="M113.44,214.57s-.8-.21-1.77-.48a17,17,0,0,1-1.76-.51,2.5,2.5,0,0,1,.53.08c.33.06.77.17,1.26.31a12.55,12.55,0,0,1,1.24.39A2.14,2.14,0,0,1,113.44,214.57Z" style="fill:#fff"></path><path d="M78.79,219.19a25.51,25.51,0,0,1,2.7-2.23,11.72,11.72,0,0,1-1.31,1.17A10.85,10.85,0,0,1,78.79,219.19Z" style="fill:#fff"></path><path d="M78.07,222.34a4.28,4.28,0,0,1,.35-.71,12.37,12.37,0,0,1,1-1.6,14.07,14.07,0,0,1,1.24-1.45,4.05,4.05,0,0,1,.59-.53,6.84,6.84,0,0,1-.52.59c-.33.36-.76.87-1.21,1.47s-.81,1.15-1.06,1.56A5.49,5.49,0,0,1,78.07,222.34Z" style="fill:#fff"></path><path d="M83.22,234.57a3.48,3.48,0,0,1-.66-1.17,3.34,3.34,0,0,1-.3-1.3s.16.58.43,1.26S83.25,234.55,83.22,234.57Z" style="fill:#fff"></path><path d="M85.49,236.92a2.84,2.84,0,0,1-.46-.52,8.51,8.51,0,0,1-.89-1.41,8.93,8.93,0,0,1-.6-1.56,2.28,2.28,0,0,1-.14-.68,6.2,6.2,0,0,1,.23.65,10.87,10.87,0,0,0,.63,1.53,12.14,12.14,0,0,0,.84,1.42C85.34,236.7,85.5,236.91,85.49,236.92Z" style="fill:#fff"></path><path d="M67.86,237.64a2.55,2.55,0,0,1,.54-.29,8.42,8.42,0,0,1,1.39-.52,9.71,9.71,0,0,1,1.45-.29,3.11,3.11,0,0,1,.61,0,3,3,0,0,1-.6.12c-.37.07-.88.17-1.43.33a13,13,0,0,0-1.39.47A3,3,0,0,1,67.86,237.64Z" style="fill:#fff"></path><path d="M67.36,239.2a2.4,2.4,0,0,1,.49-.5,5.68,5.68,0,0,1,1.45-.9,6.13,6.13,0,0,1,1.63-.45,2.51,2.51,0,0,1,.7,0s-.26,0-.68.12a7,7,0,0,0-1.6.48,7.49,7.49,0,0,0-1.44.85C67.57,239,67.37,239.21,67.36,239.2Z" style="fill:#fff"></path><path d="M117.25,230.8a14.56,14.56,0,0,1-1-1.57,12.79,12.79,0,0,1-.86-1.64,26.24,26.24,0,0,1,1.83,3.21Z" style="fill:#fff"></path><path d="M117.66,233.39a7.06,7.06,0,0,1-.38-.76,14.36,14.36,0,0,0-1-1.76,13.68,13.68,0,0,0-1.31-1.58c-.36-.38-.6-.6-.59-.62s.08,0,.19.13.28.24.47.42a11.06,11.06,0,0,1,1.34,1.57,10.74,10.74,0,0,1,1,1.8c.11.24.19.44.24.58A1.16,1.16,0,0,1,117.66,233.39Z" style="fill:#fff"></path><path d="M129.35,209.79a2.78,2.78,0,0,1-1.12-.15,2.53,2.53,0,0,1-1-.5s.47.2,1.06.37S129.36,209.75,129.35,209.79Z" style="fill:#fff"></path></g></svg>
